<svg width="30" height="38" viewBox="0 0 30 38" fill="none" xmlns="http://www.w3.org/2000/svg">
<path fill-rule="evenodd" clip-rule="evenodd" d="M0 15.8333C0 6.80517 6.44842 0 15 0C23.5516 0 30 6.80517 30 15.8333C30 27.1906 16.0547 37.4205 15.4626 37.8496C15.3237 37.9509 15.1611 38 15 38C14.8389 38 14.6747 37.9509 14.5374 37.8496C13.9437 37.4205 0 27.1906 0 15.8333ZM15.7895 15.8333H22.8947C23.3305 15.8333 23.6842 15.4771 23.6842 15.0417C23.6842 14.6031 23.3305 14.25 22.8947 14.25H15.7895V7.125C15.7895 6.68642 15.4358 6.33333 15 6.33333C14.5642 6.33333 14.2105 6.68642 14.2105 7.125V14.25H7.10526C6.66947 14.25 6.31579 14.6031 6.31579 15.0417C6.31579 15.4771 6.66947 15.8333 7.10526 15.8333H14.2105V22.9583C14.2105 23.3937 14.5642 23.75 15 23.75C15.4358 23.75 15.7895 23.3937 15.7895 22.9583V15.8333Z" fill="#1DA1F2"/>
<path d="M15.3889 8V22" stroke="white" stroke-width="4" stroke-linecap="round"/>
<path d="M8 14.6111H22" stroke="white" stroke-width="4" stroke-linecap="round"/>
</svg>
