<?xml version="1.0" standalone="no"?>
<!DOCTYPE svg PUBLIC "-//W3C//DTD SVG 1.1//EN" "http://www.w3.org/Graphics/SVG/1.1/DTD/svg11.dtd" >
<svg xmlns="http://www.w3.org/2000/svg" xmlns:xlink="http://www.w3.org/1999/xlink" version="1.1">
<metadata></metadata>
<defs>
<font id="nunito_sanssemibold_italic" horiz-adv-x="1228" >
<font-face units-per-em="2048" ascent="1638" descent="-410" />
<missing-glyph horiz-adv-x="540" />
<glyph unicode="&#xfb01;" horiz-adv-x="1193" d="M41 840l12 159h193l4 41q14 197 125.5 295.5t331.5 110.5l88 4l-2 -156l-105 -6q-113 -8 -167 -61t-62 -168l-4 -60h635l-80 -999h-207l67 840h-428l-67 -840h-207l65 840h-192zM883 1229l16 219h242l-17 -219h-241z" />
<glyph unicode="&#xfb02;" horiz-adv-x="1196" d="M41 840l12 159h193l4 41q14 197 125.5 295.5t331.5 110.5l92 4l4 -156l-115 -6q-113 -8 -167 -61t-62 -168l-4 -60h272l-12 -159h-273l-67 -840h-207l65 840h-192zM804 0l115 1444h207l-115 -1444h-207z" />
<glyph horiz-adv-x="0" />
<glyph unicode="&#xd;" horiz-adv-x="540" />
<glyph horiz-adv-x="0" />
<glyph horiz-adv-x="0" />
<glyph unicode=" "  horiz-adv-x="540" />
<glyph unicode="&#x09;" horiz-adv-x="540" />
<glyph unicode="&#xa0;" horiz-adv-x="540" />
<glyph unicode="!" horiz-adv-x="487" d="M82 0l20 244h244l-20 -244h-244zM172 406l16 1038h256l-145 -1038h-127z" />
<glyph unicode="&#x22;" horiz-adv-x="890" d="M188 1444h242l-94 -580h-139zM606 1444h242l-94 -580h-139z" />
<glyph unicode="#" d="M70 362l10 142h192l125 452h-237l10 142h266l94 346h152l-94 -346h295l94 346h151l-94 -346h162l-10 -142h-191l-125 -452h236l-10 -142h-265l-98 -362h-151l98 362h-295l-98 -362h-152l98 362h-163zM424 504h295l125 452h-295z" />
<glyph unicode="$" d="M59 162l88 157q100 -86 209 -124.5t248 -38.5q154 0 236 62.5t82 174.5q0 61 -41 102.5t-102.5 67t-172.5 60.5q-145 45 -235 86t-153.5 118.5t-63.5 200.5q0 119 59 213t165.5 151.5t244.5 65.5l18 221h172l-18 -225q125 -16 224 -59t165 -111l-88 -156 q-168 160 -428 160q-137 0 -218 -65.5t-81 -175.5q0 -72 44 -118t109.5 -74t182.5 -64q141 -45 226 -84t145.5 -112t60.5 -187q0 -176 -124 -292t-333 -132l-16 -220h-172l16 222q-281 25 -449 176z" />
<glyph unicode="%" horiz-adv-x="1918" d="M143 975q0 229 97.5 359t269.5 130q168 0 258 -101t90 -294q0 -231 -97 -359t-272 -128q-167 0 -256.5 101t-89.5 292zM322 954q0 -119 40.5 -176t126.5 -57q93 0 141 95t48 274q0 119 -41 176t-127 57q-94 0 -141 -94t-47 -275zM430 35l963 1462l133 -88l-963 -1462z M1098 379q0 229 97 359t269 130q170 0 259 -101t89 -294q0 -231 -96 -359t-270 -128q-168 0 -258 101t-90 292zM1278 360q0 -121 40 -178t128 -57q92 0 139 95t47 274q0 121 -40 178t-126 57q-94 0 -141 -94t-47 -275z" />
<glyph unicode="&#x26;" horiz-adv-x="1374" d="M90 367q0 139 84 242.5t254 197.5q-84 94 -118 169t-34 152q0 150 101.5 240t267.5 90q158 0 250 -81t92 -216q0 -115 -66.5 -202t-228.5 -181l312 -342q90 172 106 422h178q-25 -326 -166 -551l281 -307h-248l-147 164q-92 -86 -204 -132t-237 -46q-141 0 -248.5 48 t-168 135t-60.5 198zM293 377q0 -104 76.5 -167t208.5 -63q184 1 319 140l-365 403q-125 -72 -182 -144.5t-57 -168.5zM467 1130q0 -53 25.5 -103t95.5 -132q127 74 176 130t49 126q0 72 -44 115t-118 43q-82 0 -133 -49.5t-51 -129.5z" />
<glyph unicode="'" horiz-adv-x="473" d="M188 1444h242l-94 -580h-139z" />
<glyph unicode="(" horiz-adv-x="679" d="M207 385q0 588 336 1090l137 -66q-133 -262 -197.5 -516t-64.5 -533q0 -332 123 -700l-144 -57q-100 209 -145 398t-45 384z" />
<glyph unicode=")" horiz-adv-x="679" d="M6 -332q133 262 197.5 516t64.5 533q0 332 -123 700l146 58q98 -209 143 -398.5t45 -384.5q0 -584 -338 -1089z" />
<glyph unicode="*" horiz-adv-x="923" d="M113 1012v151l288 -14l-153 244l129 75l133 -256l131 256l131 -77l-154 -242l287 14v-151l-287 12l154 -242l-131 -75l-133 256l-133 -256l-129 75l153 242z" />
<glyph unicode="+" d="M117 508l10 151h424l35 424h151l-35 -424h424l-12 -151h-422l-35 -424h-151l35 424h-424z" />
<glyph unicode="," horiz-adv-x="487" d="M82 0l20 244h244l-14 -166q-8 -96 -46 -175t-120 -155l-84 72q92 90 115 180h-115z" />
<glyph unicode="-" horiz-adv-x="878" d="M141 463l15 166h589l-14 -166h-590z" />
<glyph unicode="." horiz-adv-x="487" d="M82 0l20 244h244l-20 -244h-244z" />
<glyph unicode="/" horiz-adv-x="606" d="M-84 -82l649 1630l158 -57l-651 -1630z" />
<glyph unicode="0" d="M113 618q0 264 64.5 454t188 289t296.5 99q240 0 365.5 -162.5t125.5 -472.5q0 -264 -65.5 -453.5t-188.5 -288.5t-297 -99q-240 0 -364.5 161.5t-124.5 472.5zM324 588q0 -221 69.5 -326.5t214.5 -105.5q164 0 249 178t85 522q0 223 -68.5 327.5t-214.5 104.5 q-164 0 -249.5 -178t-85.5 -522z" />
<glyph unicode="1" d="M213 0l14 174h314l82 1014l-261 -152l-86 158l424 250h152l-100 -1270h317l-12 -174h-844z" />
<glyph unicode="2" d="M125 0l10 158l545 540q113 115 163 204t50 179q0 96 -61.5 151.5t-174.5 55.5q-209 0 -411 -158l-62 156q94 84 222.5 129t271.5 45q195 0 309.5 -101.5t114.5 -275.5q0 -125 -62.5 -238.5t-214.5 -264.5l-413 -406h673l-14 -174h-946z" />
<glyph unicode="3" d="M76 160l86 155q98 -80 198.5 -118.5t212.5 -38.5q145 0 224.5 67.5t79.5 192.5q0 229 -293 229h-176l14 170h156q147 0 231 70.5t84 195.5q0 96 -63.5 150.5t-176.5 54.5q-211 0 -407 -158l-62 156q92 82 222.5 128t271.5 46q190 0 307 -97t117 -257q0 -129 -69.5 -225.5 t-192.5 -143.5q112 -32 176.5 -114t64.5 -203q0 -129 -61.5 -227.5t-177 -152.5t-273.5 -54q-145 0 -272 45t-221 129z" />
<glyph unicode="4" d="M80 299l10 158l762 987h174l-76 -977h213l-14 -168h-213l-23 -299h-208l24 299h-649zM305 467h436l52 633z" />
<glyph unicode="5" d="M121 160l88 155q190 -158 403 -157q145 0 231.5 86t86.5 231q0 123 -76 195.5t-203 72.5q-199 0 -317 -147h-135l67 848h883l-14 -170h-674l-37 -447q121 86 276 86q129 0 227.5 -53t153 -148.5t54.5 -217.5q0 -154 -65.5 -268.5t-184.5 -177t-275 -62.5q-141 0 -267 45 t-222 129z" />
<glyph unicode="6" horiz-adv-x="1226" d="M117 610q0 258 74.5 449.5t213 296t322.5 104.5q131 0 253 -45t216 -129l-86 -156q-92 78 -187.5 118t-187.5 40q-174 0 -278.5 -143.5t-126.5 -417.5l-2 -27q53 98 149 155.5t215 57.5q129 0 228.5 -55t154.5 -154.5t55 -228.5q0 -141 -62 -252.5t-172 -175t-247 -63.5 q-256 0 -394 162.5t-138 463.5zM354 436q0 -125 80 -202.5t209 -77.5q127 0 205 86t78 225q0 125 -76 200.5t-201 75.5q-129 0 -212 -86t-83 -221z" />
<glyph unicode="7" d="M186 0l746 1270h-746l15 174h977l-13 -158l-753 -1286h-226z" />
<glyph unicode="8" d="M76 377q0 133 80 232.5t217 135.5q-100 39 -154.5 120t-54.5 192q0 123 62.5 214t177 140t268.5 49q231 0 357 -96t126 -268q0 -125 -70.5 -221.5t-187.5 -137.5q238 -80 238 -340q0 -123 -65.5 -216t-187.5 -144t-286 -51q-248 0 -384 102t-136 289zM279 387 q0 -113 78.5 -172t236.5 -59q164 0 251 65.5t87 186.5q0 123 -75 180t-241 57t-251.5 -64.5t-85.5 -193.5zM369 1042q0 -106 72.5 -165.5t209.5 -59.5q145 0 222 66.5t77 189.5q0 106 -69.5 161.5t-208.5 55.5q-148 0 -225.5 -63.5t-77.5 -184.5z" />
<glyph unicode="9" d="M70 158l86 155q92 -78 187 -117.5t187 -39.5q174 0 279.5 143t126.5 418l2 26q-53 -98 -149.5 -155.5t-215.5 -57.5q-129 0 -228 55.5t-154.5 155t-55.5 228.5q0 141 62.5 252.5t172 175t246.5 63.5q256 0 395.5 -162.5t139.5 -463.5q0 -258 -75 -449.5t-214 -296 t-323 -104.5q-131 0 -253 45t-216 129zM340 977q0 -125 76 -201t200 -76q129 0 212 86t83 222q0 125 -77.5 202.5t-204.5 77.5q-129 0 -209 -86t-80 -225z" />
<glyph unicode=":" horiz-adv-x="487" d="M82 0l20 244h244l-20 -244h-244zM141 756l19 243h243l-18 -243h-244z" />
<glyph unicode=";" horiz-adv-x="487" d="M82 0l20 244h244l-14 -166q-8 -96 -46 -175t-120 -155l-84 72q92 90 115 180h-115zM143 756l19 243h244l-19 -243h-244z" />
<glyph unicode="&#x3c;" d="M117 504l10 160l1034 438l-12 -166l-838 -352l783 -353l-13 -165z" />
<glyph unicode="=" d="M100 303l11 152h997l-8 -152h-1000zM131 713l12 151h998l-11 -151h-999z" />
<glyph unicode="&#x3e;" d="M82 66l12 165l838 353l-782 352l12 166l964 -438l-10 -160z" />
<glyph unicode="?" horiz-adv-x="921" d="M63 1286q92 84 217.5 129t258.5 45q182 0 288.5 -84t106.5 -221q0 -80 -30 -146.5t-73 -117.5t-116 -123q-92 -90 -145.5 -160.5t-71.5 -163.5l-9 -45h-122l4 66q6 86 34.5 154.5t66.5 117.5t99 119q74 80 111 139.5t37 132.5q0 76 -52.5 118t-146.5 42q-197 0 -395 -158 zM276 0l19 244h244l-19 -244h-244z" />
<glyph unicode="@" horiz-adv-x="1904" d="M104 553q0 274 115 479t315.5 314.5t450.5 109.5q264 0 452.5 -104.5t285 -277.5t96.5 -372q0 -195 -58.5 -322.5t-153 -188t-204.5 -60.5q-109 0 -172.5 47t-73.5 131h-4q-111 -178 -305 -178q-139 0 -224 96.5t-85 264.5q0 141 54 263t152.5 194.5t225.5 72.5 q94 0 163.5 -43t92.5 -113h4l22 133h158l-94 -534q-8 -61 -8 -78q0 -68 29.5 -97.5t93.5 -29.5q53 0 107 44t91 143.5t37 254.5q0 164 -77 303.5t-230.5 224.5t-374.5 85q-207 0 -370.5 -91t-257 -264.5t-93.5 -406.5q0 -219 86 -383t249 -253t384 -89q166 0 287 45t184 127 h209q-86 -145 -262 -230t-418 -85q-266 0 -465 108.5t-306.5 306t-107.5 453.5zM698 496q0 -113 51.5 -174.5t133.5 -61.5q96 0 165.5 58.5t105.5 152.5t36 197q0 109 -52.5 166t-142.5 57q-92 0 -159.5 -57.5t-102.5 -148.5t-35 -189z" />
<glyph unicode="A" horiz-adv-x="1503" d="M-18 0l755 1444h176l531 -1444h-209l-125 356h-729l-180 -356h-219zM465 524h586l-240 684z" />
<glyph unicode="B" horiz-adv-x="1388" d="M129 0l113 1444h583q229 0 349 -94.5t120 -262.5q0 -125 -66.5 -215t-195.5 -135q119 -30 180.5 -114t61.5 -207q0 -199 -133 -307.5t-371 -108.5h-641zM350 170h408q157 0 236 60.5t79 187.5q0 231 -291 231h-393zM401 819h375q309 0 309 246q0 209 -284 209h-363z" />
<glyph unicode="C" horiz-adv-x="1386" d="M135 666q0 240 87 420t249 277t377 97q156 0 286 -45t222 -133l-88 -156q-96 84 -193.5 121t-222.5 37q-238 0 -369 -165t-131 -455q0 -244 114 -374t325 -130q215 0 413 157l64 -155q-90 -86 -219 -132t-279 -46q-192 0 -335.5 81.5t-221.5 236.5t-78 364z" />
<glyph unicode="D" horiz-adv-x="1527" d="M129 0l113 1444h499q326 0 506 -176t180 -490q0 -244 -88 -418t-257 -267t-406 -93h-547zM354 176h308q274 0 412 153.5t138 450.5q0 242 -122.5 365t-368.5 123h-281z" />
<glyph unicode="E" horiz-adv-x="1198" d="M129 0l113 1444h938l-13 -170h-729l-37 -455h689l-15 -172h-686l-39 -477h729l-12 -170h-938z" />
<glyph unicode="F" horiz-adv-x="1148" d="M129 0l113 1444h917l-14 -172h-705l-37 -453h666l-14 -172h-666l-51 -647h-209z" />
<glyph unicode="G" horiz-adv-x="1490" d="M133 653q0 246 90 428.5t256 280.5t389 98q313 0 508 -178l-88 -156q-100 84 -197.5 122t-220.5 38q-248 -2 -384 -168t-136 -461q0 -242 119 -372.5t354 -130.5q152 0 301 51l33 401h-338l12 160h529l-53 -678q-94 -47 -231.5 -75.5t-272.5 -28.5q-319 0 -494.5 178 t-175.5 491z" />
<glyph unicode="H" horiz-adv-x="1560" d="M129 0l113 1444h209l-50 -625h807l49 625h209l-114 -1444h-209l51 647h-805l-51 -647h-209z" />
<glyph unicode="I" horiz-adv-x="546" d="M129 0l113 1444h211l-113 -1444h-211z" />
<glyph unicode="J" horiz-adv-x="698" d="M-43 158l127 8q106 8 161.5 65.5t63.5 171.5l82 1041h213l-82 -1041q-14 -197 -119.5 -297t-302.5 -112l-135 -10z" />
<glyph unicode="K" horiz-adv-x="1314" d="M129 0l113 1444h211l-52 -656l719 656h273l-785 -705l707 -739h-254l-668 682l-53 -682h-211z" />
<glyph unicode="L" horiz-adv-x="1120" d="M129 0l113 1444h213l-101 -1268h701l-15 -176h-911z" />
<glyph unicode="M" horiz-adv-x="1722" d="M131 0l113 1444h172l442 -995l600 995h168l-113 -1444h-190l82 1038l-492 -807h-143l-369 801l-79 -1032h-191z" />
<glyph unicode="N" horiz-adv-x="1521" d="M129 0l113 1444h161l740 -1086l86 1086h198l-114 -1444h-160l-739 1090l-86 -1090h-199z" />
<glyph unicode="O" horiz-adv-x="1579" d="M135 666q0 240 85 420t239.5 278t359.5 98q203 0 351.5 -82t228.5 -236.5t80 -365.5q0 -240 -85 -420t-240 -278t-361 -98q-203 0 -351.5 81.5t-227.5 236.5t-79 366zM350 664q0 -244 115 -375t328 -131q145 0 250.5 73.5t163 214t57.5 332.5q0 246 -115 377t-328 131 q-219 0 -345 -166t-126 -456z" />
<glyph unicode="P" horiz-adv-x="1335" d="M129 0l113 1444h583q224 0 345.5 -108.5t121.5 -297.5q0 -225 -136 -342.5t-380 -117.5h-391l-45 -578h-211zM399 748h363h2q326 0 326 280q0 246 -287 246h-363z" />
<glyph unicode="Q" horiz-adv-x="1579" d="M135 666q0 240 85 420t239.5 278t359.5 98t353.5 -82t227.5 -236.5t79 -365.5q0 -274 -111 -470.5t-315 -276.5q68 -31 123 -133l122 -230l-184 -88l-160 297q-59 104 -200 107q-186 4 -326.5 88t-216.5 235.5t-76 358.5zM350 664q0 -244 115 -375t328 -131 q219 0 345 164.5t126 455.5q0 246 -115 377t-328 131q-219 0 -345 -166t-126 -456z" />
<glyph unicode="R" horiz-adv-x="1413" d="M129 0l113 1444h614q221 0 342 -102.5t121 -290.5q0 -186 -97.5 -297t-289.5 -138q49 -16 85 -54t66 -103l217 -459h-229l-215 463q-35 76 -88 104.5t-145 28.5h-238l-47 -596h-209zM397 766h400q160 0 239.5 67.5t79.5 204.5q0 121 -69.5 178.5t-210.5 57.5h-398z" />
<glyph unicode="S" horiz-adv-x="1284" d="M66 162l88 155q111 -84 225.5 -122.5t253.5 -38.5q164 0 251 58t87 165q0 68 -44 110.5t-109.5 68.5t-182.5 60q-152 45 -247 87.5t-161.5 123t-66.5 211.5q0 127 68.5 222.5t193.5 146.5t293 51q152 0 287 -47t225 -131l-86 -156q-193 162 -430 162q-162 0 -250 -61.5 t-88 -171.5q0 -74 47 -122t116.5 -76t190.5 -62q147 -43 237.5 -83t155 -116t64.5 -199q0 -193 -148.5 -303t-408.5 -110q-336 0 -561 178z" />
<glyph unicode="T" horiz-adv-x="1239" d="M86 1268l14 176h1188l-14 -176h-488l-100 -1268h-213l100 1268h-487z" />
<glyph unicode="U" horiz-adv-x="1490" d="M160 504q0 27 4 80l67 860h209l-67 -862q-2 -23 -2 -66q0 -360 360 -360q182 0 281.5 95t115.5 300l70 893h209l-70 -875q-23 -293 -177 -439t-437 -146q-279 0 -421 133t-142 387z" />
<glyph unicode="V" horiz-adv-x="1435" d="M68 1444h219l413 -1178l600 1178h218l-750 -1444h-178z" />
<glyph unicode="W" horiz-adv-x="2263" d="M133 1444h213l297 -1145l490 1145l153 -2l301 -1149l486 1151h204l-620 -1444h-174l-303 1114l-480 -1114h-174z" />
<glyph unicode="X" horiz-adv-x="1339" d="M-39 0l608 739l-473 705h246l358 -547l439 547h252l-584 -711l493 -733h-245l-377 575l-465 -575h-252z" />
<glyph unicode="Y" horiz-adv-x="1251" d="M18 1444h236l395 -594l488 594h243l-635 -770l-53 -674h-211l54 672z" />
<glyph unicode="Z" horiz-adv-x="1218" d="M55 0l13 156l868 1116h-780l14 172h1028l-12 -154l-869 -1118h803l-14 -172h-1051z" />
<glyph unicode="[" horiz-adv-x="677" d="M154 -369l143 1813h434l-12 -160h-232l-118 -1493h233l-12 -160h-436z" />
<glyph unicode="\" horiz-adv-x="606" d="M37 1505l168 43l397 -1644l-170 -43z" />
<glyph unicode="]" horiz-adv-x="677" d="M-49 -369l12 160h234l116 1493h-233l12 160h436l-141 -1813h-436z" />
<glyph unicode="^" d="M80 289l518 999h158l360 -999h-162l-288 811l-418 -811h-168z" />
<glyph unicode="_" horiz-adv-x="1024" d="M-29 -129l11 129h983l-9 -129h-985z" />
<glyph unicode="`" horiz-adv-x="614" d="M41 1546h208l177 -416h-138z" />
<glyph unicode="a" horiz-adv-x="1095" d="M92 274q0 113 59.5 180.5t189.5 98.5t349 31h74l4 51q1 17 1 32q0 93 -41 139q-48 54 -161 54q-80 0 -166 -26.5t-168 -77.5l-53 145q78 55 192.5 89t223.5 34q371 0 371 -350q0 -41 -2 -62l-47 -612h-199l12 158q-43 -84 -119.5 -128t-175.5 -44q-150 0 -247 80.5 t-97 207.5zM299 295q0 -72 50 -114t136 -42q107 0 181.5 76t83.5 195l4 57h-58q-160 0 -244.5 -17.5t-118.5 -54.5t-34 -100z" />
<glyph unicode="b" horiz-adv-x="1210" d="M104 0l115 1444h207l-47 -582q51 76 136 119t185 43q125 0 222.5 -59.5t150.5 -169t53 -254.5q0 -164 -59 -290t-166.5 -195.5t-247.5 -69.5q-115 0 -198.5 47t-128.5 137l-15 -170h-207zM348 473q0 -158 72 -240.5t205 -82.5q137 0 213.5 102t76.5 283 q0 156 -71.5 239.5t-204.5 83.5q-135 0 -213 -103.5t-78 -281.5z" />
<glyph unicode="c" horiz-adv-x="989" d="M86 469q0 168 63.5 294t182.5 193.5t278 67.5q113 0 207 -34t164 -95l-74 -147q-142 110 -288 110h-3q-152 0 -233.5 -102.5t-81.5 -286.5q0 -152 75 -234.5t210 -82.5q78 0 145.5 26.5t136.5 83.5l52 -149q-63 -59 -156.5 -93t-196.5 -34q-145 0 -253.5 59t-168 169 t-59.5 255z" />
<glyph unicode="d" horiz-adv-x="1210" d="M86 465q0 166 59.5 293t167 196.5t246.5 69.5q113 0 197 -47t129 -135l47 602h207l-113 -1444h-205l13 150q-49 -78 -134.5 -121t-187.5 -43q-125 0 -222 58t-150.5 166.5t-53.5 254.5zM295 475q0 -156 72.5 -240.5t203.5 -84.5q138 0 215.5 103t77.5 282 q0 158 -71.5 240.5t-204.5 82.5q-137 0 -215 -102.5t-78 -280.5z" />
<glyph unicode="e" horiz-adv-x="1083" d="M86 471q0 162 62.5 288t176 195.5t259.5 69.5q196 0 309 -116.5t113 -340.5q0 -47 -7 -102h-708q2 -152 77.5 -235t219.5 -83q174 0 315 111l53 -145q-63 -57 -167.5 -92t-213.5 -35q-147 0 -257.5 59t-171 170t-60.5 256zM299 584h528v17q0 131 -59 199q-63 72 -176 72 q-123 0 -198 -73.5t-95 -214.5z" />
<glyph unicode="f" horiz-adv-x="700" d="M41 840l12 159h193l4 41q14 197 125.5 295.5t331.5 110.5l92 4l4 -156l-115 -6q-113 -8 -167 -61t-62 -168l-4 -60h272l-12 -159h-273l-67 -840h-207l65 840h-192z" />
<glyph unicode="g" horiz-adv-x="1218" d="M84 -252l74 150q100 -63 189 -91t196 -28q272 0 293 289l10 122q-49 -76 -135 -117.5t-191 -41.5q-129 0 -227 56t-151.5 160.5t-53.5 241.5q0 156 59.5 278t167 189.5t248.5 67.5q115 0 201 -48t131 -134l12 157h205l-72 -913q-18 -240 -144 -354.5t-357 -114.5 q-264 0 -455 131zM297 494q0 -143 72.5 -221t208.5 -78q137 0 215.5 96t78.5 264q0 147 -72.5 225t-205.5 78q-139 0 -218 -97t-79 -267z" />
<glyph unicode="h" horiz-adv-x="1179" d="M104 0l115 1444h207l-47 -582q51 78 137 120t193 42q168 0 255 -88t87 -260q0 -41 -2 -62l-48 -614h-206l47 604q2 14 2 43q0 209 -201 209q-127 0 -201.5 -75.5t-85.5 -211.5l-45 -569h-207z" />
<glyph unicode="i" horiz-adv-x="495" d="M104 0l80 999h207l-80 -999h-207zM186 1231l17 215h239l-18 -215h-238z" />
<glyph unicode="j" horiz-adv-x="495" d="M-209 -223l100 6q104 10 154.5 58t58.5 151l80 1007h207l-78 -976q-16 -199 -110 -290t-309 -104l-97 -6zM186 1231l17 215h239l-18 -215h-238z" />
<glyph unicode="k" horiz-adv-x="1058" d="M104 0l115 1444h207l-72 -895l469 448h260l-508 -481l472 -516h-256l-443 475l-37 -475h-207z" />
<glyph unicode="l" horiz-adv-x="495" d="M104 0l115 1444h207l-115 -1444h-207z" />
<glyph unicode="m" horiz-adv-x="1765" d="M104 0l80 997h203l-10 -135q106 162 309 162q113 0 186.5 -47t106.5 -137q53 88 141 136t199 48q156 0 236.5 -88t80.5 -258q0 -41 -2 -62l-47 -616h-207l47 608q2 16 3 47q0 201 -177 201q-117 0 -183 -74.5t-77 -220.5l-43 -561h-207l48 606q2 16 2 49q0 102 -44 151.5 t-135 49.5q-115 0 -181 -74.5t-77 -220.5l-45 -561h-207z" />
<glyph unicode="n" horiz-adv-x="1179" d="M104 0l80 999h203l-12 -143q51 80 138 124t196 44q168 0 255 -88t87 -260q0 -41 -2 -62l-48 -614h-206l47 604q2 14 2 43q0 209 -201 209q-127 0 -201.5 -75.5t-85.5 -211.5l-45 -569h-207z" />
<glyph unicode="o" horiz-adv-x="1155" d="M86 471q0 168 62.5 293t176 192.5t263.5 67.5q147 0 255.5 -60.5t168 -170t59.5 -256.5q0 -168 -62.5 -292t-176 -191.5t-265.5 -67.5q-145 0 -253.5 59t-168 170t-59.5 256zM295 465q0 -156 70.5 -235.5t203.5 -79.5q142 0 217.5 106t75.5 287q0 154 -70.5 234.5 t-201.5 80.5q-143 0 -219 -106.5t-76 -286.5z" />
<glyph unicode="p" horiz-adv-x="1210" d="M76 -369l106 1368h207l-12 -141q51 78 136 122t187 44q125 0 222.5 -59.5t150.5 -169t53 -254.5q0 -164 -59 -290t-166.5 -195.5t-247.5 -69.5q-115 0 -198.5 47t-128.5 137l-43 -539h-207zM348 473q0 -158 72 -240.5t205 -82.5q137 0 213.5 102t76.5 283 q0 156 -71.5 239.5t-204.5 83.5q-135 0 -213 -103.5t-78 -281.5z" />
<glyph unicode="q" horiz-adv-x="1210" d="M86 467q0 164 59.5 291t166 196.5t245.5 69.5q115 0 201 -49t129 -137l12 161h205l-109 -1368h-207l41 512q-51 -76 -135 -116.5t-182 -40.5q-127 0 -223 58t-149.5 168t-53.5 255zM295 473q0 -154 72.5 -238.5t203.5 -84.5q136 0 213.5 103t77.5 282q0 160 -70.5 241.5 t-203.5 81.5q-137 0 -215 -102.5t-78 -282.5z" />
<glyph unicode="r" horiz-adv-x="749" d="M104 0l80 997h199l-12 -153q53 82 139 124t209 52l61 4v-174l-135 -14q-141 -14 -209.5 -82t-79.5 -199l-45 -555h-207z" />
<glyph unicode="s" horiz-adv-x="987" d="M51 113l74 149q160 -119 350 -119q106 0 160.5 33t54.5 94q0 59 -55 91t-172 65q-106 31 -172 59.5t-113 85t-47 146.5q0 139 111.5 223t296.5 84q109 0 209 -35t165 -94l-73 -145q-142 116 -298 116h-3q-102 0 -157.5 -34.5t-55.5 -102.5q0 -59 54 -90t171 -64 q106 -31 171.5 -59.5t113 -84.5t47.5 -148q0 -139 -112 -218t-300 -79q-242 0 -420 127z" />
<glyph unicode="t" horiz-adv-x="722" d="M41 840l12 159h193l24 301h207l-24 -301h274l-12 -159h-275l-37 -469l-2 -35q0 -190 189 -191q43 0 92 7l-23 -156q-49 -10 -102 -10q-176 0 -269 85t-93 244q0 33 2 50l36 475h-192z" />
<glyph unicode="u" horiz-adv-x="1165" d="M127 336q0 37 2 55l49 608h207l-49 -596l-2 -36q0 -213 198 -213q121 0 193 75.5t82 208.5l45 561h207l-78 -999h-203l13 152q-51 -80 -136.5 -123t-189.5 -43q-166 0 -252 89t-86 261z" />
<glyph unicode="v" horiz-adv-x="1064" d="M47 997h211l254 -761l375 761h211l-512 -997h-187z" />
<glyph unicode="w" horiz-adv-x="1736" d="M74 999h209l211 -751l333 751h160l215 -755l330 755h209l-461 -999h-186l-213 713l-316 -713h-188z" />
<glyph unicode="x" horiz-adv-x="1075" d="M-39 0l459 516l-357 483h246l238 -337l293 337h252l-430 -487l374 -512h-245l-261 369l-319 -369h-250z" />
<glyph unicode="y" horiz-adv-x="1064" d="M47 997h211l254 -761l375 761h211l-703 -1366h-209l203 396z" />
<glyph unicode="z" horiz-adv-x="1036" d="M59 0l11 143l635 697h-564l13 159h819l-10 -145l-635 -694h602l-15 -160h-856z" />
<glyph unicode="{" horiz-adv-x="753" d="M92 461l10 153l66 7q78 4 111.5 40.5t39.5 120.5l33 435q10 113 70.5 170t163.5 57h221l-12 -160h-146q-43 0 -66.5 -21.5t-27.5 -68.5l-35 -434q-8 -90 -58 -148.5t-116 -72.5q63 -14 105.5 -73.5t33.5 -150.5l-34 -434q-2 -47 17 -68.5t62 -21.5h148l-12 -160h-193 q-119 0 -177 61.5t-50 166.5l35 434q6 84 -22 121t-103 41z" />
<glyph unicode="|" horiz-adv-x="550" d="M109 -369l143 1813h194l-143 -1813h-194z" />
<glyph unicode="}" horiz-adv-x="753" d="M-49 -369l12 160h146q90 0 96 90l33 434q8 90 58 149.5t116 74.5q-61 14 -103.5 72.5t-34.5 148.5l33 434q8 90 -80 90h-147l12 160h193q119 0 177 -61.5t50 -165.5l-35 -435q-6 -82 21.5 -119.5t105.5 -41.5l64 -7l-13 -153l-63 -6q-78 -4 -112 -42t-42 -120l-32 -434 q-20 -227 -242 -228h-213z" />
<glyph unicode="~" d="M117 528q45 98 118.5 152.5t165.5 54.5q63 0 124 -23.5t139 -66.5q63 -35 102 -51t74 -16q111 0 172 131l114 -68q-45 -98 -119.5 -152.5t-166.5 -54.5q-63 0 -119.5 22.5t-140.5 65.5q-63 35 -102.5 51.5t-74.5 16.5q-111 0 -172 -131z" />
<glyph unicode="&#xa1;" horiz-adv-x="487" d="M47 -369l139 963h127l-10 -963h-256zM141 756l19 243h243l-18 -243h-244z" />
<glyph unicode="&#xa2;" d="M178 469q0 227 114 372.5t310 174.5l16 227h175l-19 -223q180 -18 299 -125l-76 -147q-141 111 -290 110q-150 0 -233 -102.5t-83 -286.5q0 -152 75 -234.5t210 -82.5q78 0 144.5 26.5t140.5 83.5l51 -149q-59 -55 -143.5 -88t-176.5 -39l-16 -222h-174l18 238 q-160 39 -251 162t-91 305z" />
<glyph unicode="&#xa3;" d="M55 0l15 174h186l37 479h-187l11 140h186l21 264q16 186 136 294.5t314 108.5q131 0 249 -45t204 -131l-88 -156q-84 78 -177.5 119t-183.5 41q-108 0 -171.5 -61.5t-71.5 -177.5l-21 -256h358l-12 -140h-356l-39 -479h663l-14 -174h-1059z" />
<glyph unicode="&#xa4;" d="M111 80l110 115q-100 135 -100 307q0 174 100 307l-110 115l96 96l108 -115q133 104 301 105q166 0 295 -101l107 113l100 -100l-108 -113q100 -133 100 -307q0 -170 -102 -309l108 -113l-94 -94l-109 110q-133 -102 -297 -102q-168 0 -301 104l-110 -112zM293 502 q0 -92 43 -170t116.5 -124t161.5 -46q86 0 160 46t117 124t43 170q0 94 -44 172t-118 123t-162 45q-86 0 -158.5 -46t-115.5 -124t-43 -170z" />
<glyph unicode="&#xa5;" d="M53 1444h234l352 -582l451 582h233l-504 -645h291l-12 -140h-365l-14 -172h366l-12 -139h-364l-29 -348h-211l29 348h-367l12 139h365l14 172h-366l12 140h289z" />
<glyph unicode="&#xa6;" horiz-adv-x="550" d="M111 -369l53 684h194l-53 -684h-194zM199 760l53 684h194l-53 -684h-194z" />
<glyph unicode="&#xa7;" horiz-adv-x="1124" d="M66 -254l75 150q86 -61 168 -89t174 -28q113 0 175.5 53t62.5 150q0 66 -35 111.5t-119 92.5l-209 115q-141 82 -204.5 163t-63.5 189q0 88 39 165t107 130q-29 57 -29 131q0 174 121 275.5t313 103.5q106 0 205.5 -33.5t173.5 -93.5l-74 -145q-137 113 -301 112 q-109 0 -172 -55t-63 -147q0 -61 35.5 -108.5t115.5 -96.5l209 -115q143 -84 206.5 -166t63.5 -188q0 -86 -38.5 -161t-106.5 -128q29 -68 29 -135q0 -178 -119 -278.5t-318 -100.5q-252 0 -421 127zM283 690q0 -61 44 -115.5t138 -109.5l205 -119q78 -47 131 -94 q45 66 45 135q0 63 -42 115.5t-140 111.5l-203 119q-86 51 -131 94q-47 -70 -47 -137z" />
<glyph unicode="&#xa8;" horiz-adv-x="614" d="M79 1237l15 203h213l-17 -203h-211zM440 1237l16 203h211l-14 -203h-213z" />
<glyph unicode="&#xa9;" horiz-adv-x="1669" d="M102 723q0 205 96.5 372t264.5 263t373 96t371.5 -96t263 -263t96.5 -372t-96.5 -372t-264.5 -264t-370 -97q-205 0 -372 97t-264.5 264t-97.5 372zM209 723q0 -176 82 -320.5t225 -227.5t320 -83q176 0 318 83t224 227.5t82 320.5t-82 320.5t-224 226.5t-318 82 t-319.5 -82t-225.5 -226.5t-82 -320.5zM430 723q0 201 114.5 320.5t311.5 119.5q88 0 170 -27.5t139 -78.5l-55 -133q-111 90 -233 90q-121 0 -186.5 -76t-65.5 -215q0 -141 65.5 -217t186.5 -76q123 0 233 90l55 -133q-57 -51 -139 -78.5t-170 -27.5q-197 0 -311.5 119.5 t-114.5 322.5z" />
<glyph unicode="&#xaa;" horiz-adv-x="681" d="M94 1012q0 96 81 138t269 42h50l2 31q6 100 -105 100q-102 0 -201 -57l-30 125q55 29 122.5 46t135.5 17q246 0 246 -231q0 -25 -2 -39l-27 -344h-168l8 98q-55 -109 -182 -109q-86 0 -142.5 52.5t-56.5 130.5zM260 1024q0 -33 23.5 -53.5t62.5 -20.5q57 0 95 36t42 95 l2 23h-49q-96 0 -136 -17.5t-40 -62.5z" />
<glyph unicode="&#xab;" horiz-adv-x="952" d="M125 492l8 104l223 328l144 -64l-185 -317l129 -320l-143 -59zM520 492l8 104l223 328l144 -64l-185 -317l129 -320l-143 -59z" />
<glyph unicode="&#xac;" d="M133 719l10 151h1000l-43 -573h-152l33 422h-848z" />
<glyph unicode="&#xad;" horiz-adv-x="878" d="M141 463l15 166h589l-14 -166h-590z" />
<glyph unicode="&#xae;" horiz-adv-x="1669" d="M121 723q0 205 96 372t264 263t373 96t372 -96t263 -263t96 -372t-96 -372t-264 -264t-371 -97q-205 0 -372 97t-264 264t-97 372zM227 723q0 -178 82 -322.5t225.5 -226.5t319.5 -82q174 0 317.5 83t225.5 227.5t82 320.5t-82 320.5t-225.5 226.5t-317.5 82 q-176 0 -319.5 -82t-225.5 -226.5t-82 -320.5zM498 291l67 864h357q154 0 231.5 -63.5t77.5 -184.5q0 -106 -61.5 -175.5t-170.5 -90.5q76 -18 111 -96l127 -254h-207l-133 276q-18 33 -39.5 46.5t-58.5 13.5h-88l-27 -336h-186zM719 764h180q150 0 150 133q0 61 -36 87 t-116 26h-158z" />
<glyph unicode="&#xaf;" horiz-adv-x="614" d="M57 1266l12 143h621l-13 -143h-620z" />
<glyph unicode="&#xb0;" horiz-adv-x="749" d="M125 1153q0 86 40 154.5t108.5 107.5t152.5 39q86 0 154.5 -39t108.5 -107.5t40 -154.5q0 -84 -40 -152.5t-109.5 -107.5t-153.5 -39t-152.5 39t-108.5 107.5t-40 152.5zM256 1153q0 -78 48 -128t122 -50q76 0 124 50t48 128t-48 128t-124 50q-74 0 -122 -50t-48 -128z " />
<glyph unicode="&#xb1;" d="M76 0l12 152h999l-12 -152h-999zM123 598l12 152h424l27 333h151l-26 -333h424l-13 -152h-424l-26 -334h-152l27 334h-424z" />
<glyph unicode="&#xb2;" horiz-adv-x="778" d="M111 578l10 135l311 307q59 59 84 102.5t25 86.5q0 49 -33 74.5t-92 25.5q-55 0 -118 -22.5t-118 -63.5l-37 131q59 45 139 71.5t162 26.5q129 0 205 -62t76 -167q0 -76 -40 -145.5t-136 -155.5l-211 -197h375l-13 -147h-589z" />
<glyph unicode="&#xb3;" horiz-adv-x="778" d="M78 668l57 131q127 -86 248 -86q74 0 117 31t43 92q0 109 -146 109h-125l13 141h102q78 0 120 31.5t42 93.5q0 47 -34 72.5t-91 25.5q-59 0 -124 -22.5t-120 -63.5l-37 131q59 45 139 71.5t162 26.5q129 0 205 -60t76 -157q0 -78 -41 -133t-113 -80q68 -22 106 -70 t38 -120q0 -121 -89 -191.5t-233 -70.5q-88 0 -172 26.5t-143 71.5z" />
<glyph unicode="&#xb4;" horiz-adv-x="614" d="M288 1130l230 416h233l-325 -416h-138z" />
<glyph unicode="&#xb5;" horiz-adv-x="1165" d="M72 -369l106 1368h207l-49 -596l-2 -36q0 -213 198 -213q121 0 193 76.5t82 207.5l45 561h207l-78 -999h-203l13 152q-51 -80 -136.5 -123t-189.5 -43q-96 0 -158 37l-28 -392h-207z" />
<glyph unicode="&#xb6;" horiz-adv-x="1220" d="M125 993q0 201 121 326t336 125h544l-143 -1813h-158l133 1672h-233l-133 -1672h-156l76 977q-174 4 -280.5 108.5t-106.5 276.5z" />
<glyph unicode="&#xb7;" horiz-adv-x="487" d="M115 424l20 244h244l-19 -244h-245z" />
<glyph unicode="&#xb8;" horiz-adv-x="614" d="M51 -358l31 96q84 -29 158 -29q51 0 80.5 16.5t29.5 49.5q0 51 -69 51q-33 0 -86 -16l-37 34l39 197h131l-27 -127q12 2 33 2q72 0 115 -36t43 -101q0 -78 -66 -127t-184 -49q-47 0 -99.5 10t-91.5 29z" />
<glyph unicode="&#xb9;" horiz-adv-x="778" d="M201 578l10 147h158l41 519l-146 -82l-63 131l272 151h135l-59 -719h158l-11 -147h-495z" />
<glyph unicode="&#xba;" horiz-adv-x="718" d="M90 1116q0 154 92 246t248 92q137 0 219 -79t82 -208q0 -154 -93 -246t-247 -92q-137 0 -219 79t-82 208zM268 1122q0 -72 34 -111.5t95 -39.5q76 0 117 51t41 141q0 72 -35 112t-96 40q-74 0 -115 -51.5t-41 -141.5z" />
<glyph unicode="&#xbb;" horiz-adv-x="946" d="M63 225l187 318l-131 319l145 60l176 -326l-8 -104l-227 -328zM458 225l187 318l-131 319l145 60l176 -326l-8 -104l-227 -328z" />
<glyph unicode="&#xbc;" horiz-adv-x="1927" d="M201 578l10 147h158l41 518l-146 -82l-63 131l272 152h135l-59 -719h158l-11 -147h-495zM436 37l958 1460l132 -90l-959 -1460zM1180 160l10 129l457 577h145l-45 -569h127l-10 -137h-127l-13 -160h-167l12 160h-389zM1352 297h229l25 324z" />
<glyph unicode="&#xbd;" horiz-adv-x="1927" d="M201 578l10 147h158l41 518l-146 -82l-63 131l272 152h135l-59 -719h158l-11 -147h-495zM436 37l958 1460l132 -90l-959 -1460zM1215 0l10 135l311 307q59 59 84 102.5t25 86.5q0 49 -33 74.5t-92 25.5q-55 0 -118 -22.5t-118 -63.5l-37 131q59 45 139 71.5t162 26.5 q129 0 205 -62t76 -167q0 -76 -40 -145.5t-136 -155.5l-211 -197h375l-13 -147h-589z" />
<glyph unicode="&#xbe;" horiz-adv-x="1927" d="M78 668l57 131q125 -86 248 -86q74 0 117 30.5t43 92.5q0 109 -146 108h-125l13 141h102q78 0 120 32t42 93q0 47 -34 73t-91 26q-59 0 -123.5 -22.5t-120.5 -63.5l-37 131q59 45 139 71.5t162 26.5q129 0 205 -60.5t76 -156.5q0 -78 -41 -133t-113 -80q68 -23 106 -71 t38 -120q0 -121 -89 -191.5t-233 -70.5q-88 0 -172 27t-143 72zM436 37l958 1460l132 -90l-959 -1460zM1180 160l10 129l457 577h145l-45 -569h127l-10 -137h-127l-13 -160h-167l12 160h-389zM1352 297h229l25 324z" />
<glyph unicode="&#xbf;" horiz-adv-x="921" d="M-4 -80q0 80 29.5 141.5t73.5 106.5t116 104q92 78 142.5 137.5t66.5 143.5l10 47h123l-6 -68q-8 -117 -59.5 -192.5t-141.5 -157.5q-74 -68 -108.5 -117t-34.5 -118q0 -74 54 -116t149 -42q195 0 393 158l63 -156q-94 -84 -218 -129t-255 -45q-182 0 -289.5 84 t-107.5 219zM383 756l18 243h246l-20 -243h-244z" />
<glyph unicode="&#xc0;" horiz-adv-x="1503" d="M-18 0l755 1444h176l531 -1444h-209l-125 356h-729l-180 -356h-219zM465 524h586l-240 684zM516 1880h199l188 -313h-135z" />
<glyph unicode="&#xc1;" horiz-adv-x="1503" d="M-18 0l755 1444h176l531 -1444h-209l-125 356h-729l-180 -356h-219zM465 524h586l-240 684zM768 1567l225 313h224l-314 -313h-135z" />
<glyph unicode="&#xc2;" horiz-adv-x="1503" d="M-18 0l755 1444h176l531 -1444h-209l-125 356h-729l-180 -356h-219zM465 524h586l-240 684zM520 1567l275 313h131l225 -313h-172l-121 200l-164 -200h-174z" />
<glyph unicode="&#xc3;" horiz-adv-x="1503" d="M-18 0l755 1444h176l531 -1444h-209l-125 356h-729l-180 -356h-219zM465 524h586l-240 684zM502 1602q6 127 64.5 190t148.5 63q39 0 73.5 -16t88.5 -49q43 -27 67.5 -38t46.5 -11q43 0 71 28.5t30 79.5h104q-8 -127 -66.5 -190.5t-148.5 -63.5q-39 0 -73.5 16.5 t-88.5 49.5q-39 25 -64.5 37t-47.5 12q-43 0 -71 -28.5t-32 -79.5h-102z" />
<glyph unicode="&#xc4;" horiz-adv-x="1503" d="M-18 0l755 1444h176l531 -1444h-209l-125 356h-729l-180 -356h-219zM465 524h586l-240 684zM555 1624l15 203h213l-17 -203h-211zM916 1624l16 203h211l-14 -203h-213z" />
<glyph unicode="&#xc5;" horiz-adv-x="1503" d="M137 0l242 778l381 613q-61 23 -99 75t-38 119q0 88 61 148.5t152 60.5q88 0 149.5 -60.5t61.5 -148.5t-61.5 -147.5t-149.5 -59.5h-11l365 -712l192 -666l-194 356h-828zM465 524h631l-119 215l-164 545l-336 -739zM739 1585q0 -41 28 -70.5t69 -29.5t67.5 28.5 t26.5 71.5t-26.5 72t-67.5 29t-69 -30t-28 -71z" />
<glyph unicode="&#xc6;" horiz-adv-x="2035" d="M-59 0l999 1444h1075l-12 -172h-856l63 -453h717l-14 -172h-678l65 -475h617l-14 -172h-773l-49 356h-665l-240 -356h-235zM528 524h531l-90 658z" />
<glyph unicode="&#xc7;" horiz-adv-x="1386" d="M135 666q0 240 87 420t249 277t377 97q156 0 286 -45t222 -133l-88 -156q-96 84 -193.5 121t-222.5 37q-238 0 -369 -165t-131 -455q0 -244 114 -374t325 -130q215 0 413 157l64 -155q-86 -82 -207 -128t-262 -50l-15 -70q12 2 33 2q72 0 115 -36t43 -101 q0 -78 -65.5 -127t-184.5 -49q-47 0 -99.5 10t-90.5 29l30 96q84 -29 158 -29q51 0 81 16.5t30 49.5q0 51 -70 51q-33 0 -86 -16l-37 34l29 146q-250 31 -392.5 209t-142.5 467z" />
<glyph unicode="&#xc8;" horiz-adv-x="1198" d="M129 0l113 1444h938l-13 -170h-729l-37 -455h689l-15 -172h-686l-39 -477h729l-12 -170h-938zM432 1880h199l188 -313h-135z" />
<glyph unicode="&#xc9;" horiz-adv-x="1198" d="M129 0l113 1444h938l-13 -170h-729l-37 -455h689l-15 -172h-686l-39 -477h729l-12 -170h-938zM684 1567l225 313h224l-314 -313h-135z" />
<glyph unicode="&#xca;" horiz-adv-x="1198" d="M129 0l113 1444h938l-13 -170h-729l-37 -455h689l-15 -172h-686l-39 -477h729l-12 -170h-938zM436 1567l275 313h131l225 -313h-172l-121 200l-164 -200h-174z" />
<glyph unicode="&#xcb;" horiz-adv-x="1198" d="M129 0l113 1444h938l-13 -170h-729l-37 -455h689l-15 -172h-686l-39 -477h729l-12 -170h-938zM471 1624l15 203h213l-17 -203h-211zM832 1624l16 203h211l-14 -203h-213z" />
<glyph unicode="&#xcc;" horiz-adv-x="546" d="M39 1880h199l188 -313h-135zM129 0l113 1444h211l-113 -1444h-211z" />
<glyph unicode="&#xcd;" horiz-adv-x="546" d="M129 0l113 1444h211l-113 -1444h-211zM291 1567l225 313h224l-314 -313h-135z" />
<glyph unicode="&#xce;" horiz-adv-x="546" d="M43 1567l275 313h131l225 -313h-172l-121 200l-164 -200h-174zM129 0l113 1444h211l-113 -1444h-211z" />
<glyph unicode="&#xcf;" horiz-adv-x="546" d="M78 1624l15 203h213l-17 -203h-211zM129 0l113 1444h211l-113 -1444h-211zM439 1624l16 203h211l-14 -203h-213z" />
<glyph unicode="&#xd0;" horiz-adv-x="1564" d="M31 649l14 166h184l50 629h499q326 0 506 -176t180 -490q0 -244 -88 -418t-257 -267t-406 -93h-547l51 649h-186zM391 176h307q275 0 413 153.5t138 450.5q0 242 -122.5 365t-368.5 123h-281l-35 -453h389l-14 -166h-389z" />
<glyph unicode="&#xd1;" horiz-adv-x="1521" d="M129 0l113 1444h161l740 -1086l86 1086h198l-114 -1444h-160l-739 1090l-86 -1090h-199zM510 1602q6 127 64.5 190t148.5 63q39 0 73.5 -16t88.5 -49q43 -27 67.5 -38t46.5 -11q43 0 71 28.5t30 79.5h104q-8 -127 -66.5 -190.5t-148.5 -63.5q-39 0 -73.5 16.5t-88.5 49.5 q-39 25 -64.5 37t-47.5 12q-43 0 -71 -28.5t-32 -79.5h-102z" />
<glyph unicode="&#xd2;" horiz-adv-x="1579" d="M135 666q0 240 85 420t239.5 278t359.5 98q203 0 351.5 -82t228.5 -236.5t80 -365.5q0 -240 -85 -420t-240 -278t-361 -98q-203 0 -351.5 81.5t-227.5 236.5t-79 366zM350 664q0 -244 115 -375t328 -131q145 0 250.5 73.5t163 214t57.5 332.5q0 246 -115 377t-328 131 q-219 0 -345 -166t-126 -456zM553 1880h199l188 -313h-135z" />
<glyph unicode="&#xd3;" horiz-adv-x="1579" d="M135 666q0 240 85 420t239.5 278t359.5 98q203 0 351.5 -82t228.5 -236.5t80 -365.5q0 -240 -85 -420t-240 -278t-361 -98q-203 0 -351.5 81.5t-227.5 236.5t-79 366zM350 664q0 -244 115 -375t328 -131q145 0 250.5 73.5t163 214t57.5 332.5q0 246 -115 377t-328 131 q-219 0 -345 -166t-126 -456zM805 1567l225 313h224l-314 -313h-135z" />
<glyph unicode="&#xd4;" horiz-adv-x="1579" d="M135 666q0 240 85 420t239.5 278t359.5 98q203 0 351.5 -82t228.5 -236.5t80 -365.5q0 -240 -85 -420t-240 -278t-361 -98q-203 0 -351.5 81.5t-227.5 236.5t-79 366zM350 664q0 -244 115 -375t328 -131q145 0 250.5 73.5t163 214t57.5 332.5q0 246 -115 377t-328 131 q-219 0 -345 -166t-126 -456zM557 1567l275 313h131l225 -313h-172l-121 200l-164 -200h-174z" />
<glyph unicode="&#xd5;" horiz-adv-x="1579" d="M135 666q0 240 85 420t239.5 278t359.5 98q203 0 351.5 -82t228.5 -236.5t80 -365.5q0 -240 -85 -420t-240 -278t-361 -98q-203 0 -351.5 81.5t-227.5 236.5t-79 366zM350 664q0 -244 115 -375t328 -131q145 0 250.5 73.5t163 214t57.5 332.5q0 246 -115 377t-328 131 q-219 0 -345 -166t-126 -456zM539 1602q6 127 64.5 190t148.5 63q39 0 73.5 -16t88.5 -49q43 -27 67.5 -38t46.5 -11q43 0 71 28.5t30 79.5h104q-8 -127 -66.5 -190.5t-148.5 -63.5q-39 0 -73.5 16.5t-88.5 49.5q-39 25 -64.5 37t-47.5 12q-43 0 -71 -28.5t-32 -79.5h-102z " />
<glyph unicode="&#xd6;" horiz-adv-x="1579" d="M135 666q0 240 85 420t239.5 278t359.5 98q203 0 351.5 -82t228.5 -236.5t80 -365.5q0 -240 -85 -420t-240 -278t-361 -98q-203 0 -351.5 81.5t-227.5 236.5t-79 366zM350 664q0 -244 115 -375t328 -131q145 0 250.5 73.5t163 214t57.5 332.5q0 246 -115 377t-328 131 q-219 0 -345 -166t-126 -456zM592 1624l15 203h213l-17 -203h-211zM953 1624l16 203h211l-14 -203h-213z" />
<glyph unicode="&#xd7;" d="M154 211l364 371l-346 374l115 107l340 -371l364 371l99 -107l-365 -370l346 -375l-115 -107l-340 371l-364 -371z" />
<glyph unicode="&#xd8;" horiz-adv-x="1579" d="M135 666q0 240 85 420t239.5 278t359.5 98q193 0 334 -73l109 163l135 -86l-113 -170q94 -88 144.5 -220t50.5 -298q0 -240 -85 -420t-240 -278t-361 -98q-193 0 -332 71l-109 -162l-135 86l113 168q-94 90 -144.5 222.5t-50.5 298.5zM350 664q0 -222 92 -347l609 916 q-96 53 -230 53q-219 0 -345 -166t-126 -456zM563 209q98 -51 230 -51q145 0 250.5 73.5t163 214t57.5 332.5q0 217 -93 348z" />
<glyph unicode="&#xd9;" horiz-adv-x="1490" d="M160 504q0 27 4 80l67 860h209l-67 -862q-2 -23 -2 -66q0 -360 360 -360q182 0 281.5 95t115.5 300l70 893h209l-70 -875q-23 -293 -177 -439t-437 -146q-279 0 -421 133t-142 387zM510 1880h199l188 -313h-135z" />
<glyph unicode="&#xda;" horiz-adv-x="1490" d="M160 504q0 27 4 80l67 860h209l-67 -862q-2 -23 -2 -66q0 -360 360 -360q182 0 281.5 95t115.5 300l70 893h209l-70 -875q-23 -293 -177 -439t-437 -146q-279 0 -421 133t-142 387zM762 1567l225 313h224l-314 -313h-135z" />
<glyph unicode="&#xdb;" horiz-adv-x="1490" d="M160 504q0 27 4 80l67 860h209l-67 -862q-2 -23 -2 -66q0 -360 360 -360q182 0 281.5 95t115.5 300l70 893h209l-70 -875q-23 -293 -177 -439t-437 -146q-279 0 -421 133t-142 387zM514 1567l275 313h131l225 -313h-172l-121 200l-164 -200h-174z" />
<glyph unicode="&#xdc;" horiz-adv-x="1490" d="M160 504q0 27 4 80l67 860h209l-67 -862q-2 -23 -2 -66q0 -360 360 -360q182 0 281.5 95t115.5 300l70 893h209l-70 -875q-23 -293 -177 -439t-437 -146q-279 0 -421 133t-142 387zM549 1624l15 203h213l-17 -203h-211zM910 1624l16 203h211l-14 -203h-213z" />
<glyph unicode="&#xdd;" horiz-adv-x="1251" d="M18 1444h236l395 -594l488 594h243l-635 -770l-53 -674h-211l54 672zM641 1567l225 313h224l-314 -313h-135z" />
<glyph unicode="&#xde;" horiz-adv-x="1335" d="M129 0l113 1444h209l-25 -309h401q211 0 327 -97.5t116 -279.5q0 -201 -125 -312.5t-359 -111.5h-421l-27 -334h-209zM377 502h395q295 0 295 246q0 113 -64.5 165t-195.5 52h-393z" />
<glyph unicode="&#xdf;" horiz-adv-x="1298" d="M104 0l78 965q20 244 154.5 367.5t359.5 123.5q168 0 265.5 -68.5t97.5 -187.5q0 -90 -45 -152.5t-131 -140.5q-63 -55 -92 -91t-29 -79q0 -53 45 -82.5t139 -62.5q88 -33 144.5 -62.5t96.5 -84t40 -140.5q0 -141 -108.5 -230t-295.5 -89q-104 0 -206.5 33.5t-176.5 93.5 l74 149q164 -117 326 -117q86 0 138 38t52 106q0 55 -46 84.5t-146 66.5q-88 31 -143.5 58.5t-94.5 78t-39 130.5q0 82 43 140t125 132q68 61 100.5 102t32.5 93q0 59 -45 91.5t-129 32.5q-272 0 -297 -317l-80 -981h-207z" />
<glyph unicode="&#xe0;" horiz-adv-x="1095" d="M92 274q0 113 59.5 180.5t189.5 98.5t349 31h74l4 51q8 117 -40 171t-161 54q-80 0 -166 -26.5t-168 -77.5l-53 145q78 55 192.5 89t223.5 34q371 0 371 -350q0 -41 -2 -62l-47 -612h-199l12 158q-43 -84 -119.5 -128t-175.5 -44q-150 0 -247 80.5t-97 207.5zM297 1546 h208l177 -416h-138zM299 295q0 -72 50 -114t136 -42q107 0 181.5 76t83.5 195l4 57h-58q-160 0 -244.5 -17.5t-118.5 -54.5t-34 -100z" />
<glyph unicode="&#xe1;" horiz-adv-x="1095" d="M92 274q0 113 59.5 180.5t189.5 98.5t349 31h74l4 51q8 117 -40 171t-161 54q-80 0 -166 -26.5t-168 -77.5l-53 145q78 55 192.5 89t223.5 34q371 0 371 -350q0 -41 -2 -62l-47 -612h-199l12 158q-43 -84 -119.5 -128t-175.5 -44q-150 0 -247 80.5t-97 207.5zM299 295 q0 -72 50 -114t136 -42q107 0 181.5 76t83.5 195l4 57h-58q-160 0 -244.5 -17.5t-118.5 -54.5t-34 -100zM544 1130l230 416h233l-325 -416h-138z" />
<glyph unicode="&#xe2;" horiz-adv-x="1095" d="M92 274q0 113 59.5 180.5t189.5 98.5t349 31h74l4 51q8 117 -40 171t-161 54q-80 0 -166 -26.5t-168 -77.5l-53 145q78 55 192.5 89t223.5 34q371 0 371 -350q0 -41 -2 -62l-47 -612h-199l12 158q-43 -84 -119.5 -128t-175.5 -44q-150 0 -247 80.5t-97 207.5zM297 1130 l280 416h137l215 -416h-174l-118 277l-158 -277h-182zM299 295q0 -72 50 -114t136 -42q107 0 181.5 76t83.5 195l4 57h-58q-160 0 -244.5 -17.5t-118.5 -54.5t-34 -100z" />
<glyph unicode="&#xe3;" horiz-adv-x="1095" d="M92 274q0 113 59.5 180.5t189.5 98.5t349 31h74l4 51q8 117 -40 171t-161 54q-80 0 -166 -26.5t-168 -77.5l-53 145q78 55 192.5 89t223.5 34q371 0 371 -350q0 -41 -2 -62l-47 -612h-199l12 158q-43 -84 -119.5 -128t-175.5 -44q-150 0 -247 80.5t-97 207.5zM282 1219 q6 124 63.5 187.5t145.5 63.5q41 0 77 -16t89 -49q8 -4 33.5 -19.5t46 -22.5t37.5 -7q43 0 69.5 28.5t30.5 79.5h102q-8 -127 -65 -189.5t-143 -62.5q-41 0 -77 15.5t-91 48.5q-37 25 -62.5 37t-50.5 12q-43 0 -69.5 -27.5t-32.5 -78.5h-103zM299 295q0 -72 50 -114t136 -42 q107 0 181.5 76t83.5 195l4 57h-58q-160 0 -244.5 -17.5t-118.5 -54.5t-34 -100z" />
<glyph unicode="&#xe4;" horiz-adv-x="1095" d="M92 274q0 113 59.5 180.5t189.5 98.5t349 31h74l4 51q8 117 -40 171t-161 54q-80 0 -166 -26.5t-168 -77.5l-53 145q78 55 192.5 89t223.5 34q371 0 371 -350q0 -41 -2 -62l-47 -612h-199l12 158q-43 -84 -119.5 -128t-175.5 -44q-150 0 -247 80.5t-97 207.5zM299 295 q0 -72 50 -114t136 -42q107 0 181.5 76t83.5 195l4 57h-58q-160 0 -244.5 -17.5t-118.5 -54.5t-34 -100zM335 1237l15 203h213l-17 -203h-211zM696 1237l16 203h211l-14 -203h-213z" />
<glyph unicode="&#xe5;" horiz-adv-x="1095" d="M92 274q0 113 59.5 180.5t189.5 98.5t349 31h74l4 51q8 117 -40 171t-161 54q-80 0 -166 -26.5t-168 -77.5l-53 145q78 55 192.5 89t223.5 34q371 0 371 -350q0 -41 -2 -62l-47 -612h-199l12 158q-43 -84 -119.5 -128t-175.5 -44q-150 0 -247 80.5t-97 207.5zM299 295 q0 -72 50 -114t136 -42q107 0 181.5 76t83.5 195l4 57h-58q-160 0 -244.5 -17.5t-118.5 -54.5t-34 -100zM417 1339q0 88 61.5 147.5t149.5 59.5q90 0 151.5 -59.5t61.5 -147.5t-61.5 -148.5t-151.5 -60.5q-88 0 -149.5 60.5t-61.5 148.5zM534 1339q0 -43 26.5 -71.5 t67.5 -28.5q43 0 70 28.5t27 71.5t-27 71t-70 28q-41 0 -67.5 -29t-26.5 -70z" />
<glyph unicode="&#xe6;" horiz-adv-x="1736" d="M92 274q0 113 59.5 180.5t189.5 98.5t349 31h76l4 51l2 37q0 96 -49 142t-154 46q-82 0 -168 -26.5t-168 -77.5l-53 145q78 55 193.5 89t224.5 34q231 0 315 -152q61 74 148.5 113t193.5 39q187 0 296.5 -118t109.5 -341q0 -47 -6 -100h-697q2 -152 78 -235t219 -83 q76 0 155 28t149 83l51 -145q-61 -57 -164 -92t-203 -35q-147 0 -251.5 61.5t-157.5 173.5q-53 -113 -156 -174t-232 -61q-158 0 -256 80.5t-98 207.5zM299 291q0 -68 50 -110t132 -42q109 0 185.5 78t87.5 203l4 47h-62q-160 0 -245.5 -17.5t-118.5 -55.5t-33 -103z M967 584h516q2 143 -58.5 215.5t-167.5 72.5q-120 0 -195 -73.5t-95 -214.5z" />
<glyph unicode="&#xe7;" horiz-adv-x="989" d="M86 469q0 168 63.5 294t182.5 193.5t278 67.5q113 0 207 -34t164 -95l-74 -147q-143 111 -291 110q-152 0 -233.5 -102.5t-81.5 -286.5q0 -152 75 -234.5t210 -82.5q78 0 145.5 26.5t136.5 83.5l52 -149q-64 -60 -154 -92.5t-191 -34.5l-14 -72q12 2 33 2q72 0 115 -36 t43 -101q0 -78 -65.5 -127t-184.5 -49q-47 0 -99.5 10t-91.5 29l31 96q84 -29 158 -29q51 0 80.5 16.5t29.5 49.5q0 51 -69 51q-33 0 -86 -16l-37 34l31 154q-168 35 -265.5 159t-97.5 312z" />
<glyph unicode="&#xe8;" horiz-adv-x="1083" d="M86 471q0 162 62.5 288t176 195.5t259.5 69.5q196 0 309 -116.5t113 -340.5q0 -47 -7 -102h-708q2 -152 77.5 -235t219.5 -83q174 0 315 111l53 -145q-63 -57 -167.5 -92t-213.5 -35q-147 0 -257.5 59t-171 170t-60.5 256zM299 584h528q4 143 -59 215.5t-176 72.5 q-123 0 -198 -73.5t-95 -214.5zM299 1546h208l177 -416h-138z" />
<glyph unicode="&#xe9;" horiz-adv-x="1083" d="M86 471q0 162 62.5 288t176 195.5t259.5 69.5q196 0 309 -116.5t113 -340.5q0 -47 -7 -102h-708q2 -152 77.5 -235t219.5 -83q174 0 315 111l53 -145q-63 -57 -167.5 -92t-213.5 -35q-147 0 -257.5 59t-171 170t-60.5 256zM299 584h528q4 143 -59 215.5t-176 72.5 q-123 0 -198 -73.5t-95 -214.5zM546 1130l230 416h233l-325 -416h-138z" />
<glyph unicode="&#xea;" horiz-adv-x="1083" d="M86 471q0 162 62.5 288t176 195.5t259.5 69.5q196 0 309 -116.5t113 -340.5q0 -47 -7 -102h-708q2 -152 77.5 -235t219.5 -83q174 0 315 111l53 -145q-63 -57 -167.5 -92t-213.5 -35q-147 0 -257.5 59t-171 170t-60.5 256zM299 584h528q4 143 -59 215.5t-176 72.5 q-123 0 -198 -73.5t-95 -214.5zM299 1130l280 416h137l215 -416h-174l-118 277l-158 -277h-182z" />
<glyph unicode="&#xeb;" horiz-adv-x="1083" d="M86 471q0 162 62.5 288t176 195.5t259.5 69.5q196 0 309 -116.5t113 -340.5q0 -47 -7 -102h-708q2 -152 77.5 -235t219.5 -83q174 0 315 111l53 -145q-63 -57 -167.5 -92t-213.5 -35q-147 0 -257.5 59t-171 170t-60.5 256zM299 584h528q4 143 -59 215.5t-176 72.5 q-123 0 -198 -73.5t-95 -214.5zM337 1237l15 203h213l-17 -203h-211zM698 1237l16 203h211l-14 -203h-213z" />
<glyph unicode="&#xec;" horiz-adv-x="495" d="M-18 1546h208l177 -416h-138zM104 0l80 999h207l-80 -999h-207z" />
<glyph unicode="&#xed;" horiz-adv-x="495" d="M104 0l80 999h207l-80 -999h-207zM229 1130l230 416h233l-325 -416h-138z" />
<glyph unicode="&#xee;" horiz-adv-x="495" d="M-18 1130l280 416h137l215 -416h-174l-118 277l-158 -277h-182zM104 0l80 999h207l-80 -999h-207z" />
<glyph unicode="&#xef;" horiz-adv-x="495" d="M20 1237l15 203h213l-17 -203h-211zM104 0l80 999h207l-80 -999h-207zM381 1237l16 203h211l-14 -203h-213z" />
<glyph unicode="&#xf0;" horiz-adv-x="1165" d="M82 432q0 150 62.5 263.5t174 175t252.5 61.5q106 0 189.5 -37t132.5 -107q-25 190 -148 322l-346 -111l-28 121l266 86q-113 76 -256 109l59 145q233 -51 394 -190l270 86l26 -121l-202 -66q80 -104 121 -235t41 -279q0 -342 -142.5 -505.5t-384.5 -163.5 q-145 0 -253.5 54t-168 155.5t-59.5 236.5zM291 430q0 -131 70.5 -205.5t203.5 -74.5q142 0 217.5 93t75.5 253q0 127 -71.5 200.5t-200.5 73.5q-141 0 -218 -93t-77 -247z" />
<glyph unicode="&#xf1;" horiz-adv-x="1179" d="M104 0l80 999h203l-12 -143q51 80 138 124t196 44q168 0 255 -88t87 -260q0 -41 -2 -62l-48 -614h-206l47 604q2 14 2 43q0 209 -201 209q-127 0 -201.5 -75.5t-85.5 -211.5l-45 -569h-207zM311 1219q6 124 63.5 187.5t145.5 63.5q41 0 77 -16t89 -49q8 -4 33.5 -19.5 t46 -22.5t37.5 -7q43 0 69.5 28.5t30.5 79.5h102q-8 -127 -65 -189.5t-143 -62.5q-41 0 -77 15.5t-91 48.5q-37 25 -62.5 37t-50.5 12q-43 0 -69.5 -27.5t-32.5 -78.5h-103z" />
<glyph unicode="&#xf2;" horiz-adv-x="1155" d="M86 471q0 168 62.5 293t176 192.5t263.5 67.5q147 0 255.5 -60.5t168 -170t59.5 -256.5q0 -168 -62.5 -292t-176 -191.5t-265.5 -67.5q-145 0 -253.5 59t-168 170t-59.5 256zM295 465q0 -156 70.5 -235.5t203.5 -79.5q142 0 217.5 106t75.5 287q0 154 -70.5 234.5 t-201.5 80.5q-143 0 -219 -106.5t-76 -286.5zM312 1546h208l177 -416h-138z" />
<glyph unicode="&#xf3;" horiz-adv-x="1155" d="M86 471q0 168 62.5 293t176 192.5t263.5 67.5q147 0 255.5 -60.5t168 -170t59.5 -256.5q0 -168 -62.5 -292t-176 -191.5t-265.5 -67.5q-145 0 -253.5 59t-168 170t-59.5 256zM295 465q0 -156 70.5 -235.5t203.5 -79.5q142 0 217.5 106t75.5 287q0 154 -70.5 234.5 t-201.5 80.5q-143 0 -219 -106.5t-76 -286.5zM559 1130l230 416h233l-325 -416h-138z" />
<glyph unicode="&#xf4;" horiz-adv-x="1155" d="M86 471q0 168 62.5 293t176 192.5t263.5 67.5q147 0 255.5 -60.5t168 -170t59.5 -256.5q0 -168 -62.5 -292t-176 -191.5t-265.5 -67.5q-145 0 -253.5 59t-168 170t-59.5 256zM295 465q0 -156 70.5 -235.5t203.5 -79.5q142 0 217.5 106t75.5 287q0 154 -70.5 234.5 t-201.5 80.5q-143 0 -219 -106.5t-76 -286.5zM312 1130l280 416h137l215 -416h-174l-118 277l-158 -277h-182z" />
<glyph unicode="&#xf5;" horiz-adv-x="1155" d="M86 471q0 168 62.5 293t176 192.5t263.5 67.5q147 0 255.5 -60.5t168 -170t59.5 -256.5q0 -168 -62.5 -292t-176 -191.5t-265.5 -67.5q-145 0 -253.5 59t-168 170t-59.5 256zM295 465q0 -156 70.5 -235.5t203.5 -79.5q142 0 217.5 106t75.5 287q0 154 -70.5 234.5 t-201.5 80.5q-143 0 -219 -106.5t-76 -286.5zM297 1219q6 124 63.5 187.5t145.5 63.5q41 0 77 -16t89 -49q8 -4 33.5 -19.5t46 -22.5t37.5 -7q43 0 69.5 28.5t30.5 79.5h102q-8 -127 -65 -189.5t-143 -62.5q-41 0 -77 15.5t-91 48.5q-37 25 -62.5 37t-50.5 12 q-43 0 -69.5 -27.5t-32.5 -78.5h-103z" />
<glyph unicode="&#xf6;" horiz-adv-x="1155" d="M86 471q0 168 62.5 293t176 192.5t263.5 67.5q147 0 255.5 -60.5t168 -170t59.5 -256.5q0 -168 -62.5 -292t-176 -191.5t-265.5 -67.5q-145 0 -253.5 59t-168 170t-59.5 256zM295 465q0 -156 70.5 -235.5t203.5 -79.5q142 0 217.5 106t75.5 287q0 154 -70.5 234.5 t-201.5 80.5q-143 0 -219 -106.5t-76 -286.5zM350 1237l15 203h213l-17 -203h-211zM711 1237l16 203h211l-14 -203h-213z" />
<glyph unicode="&#xf7;" d="M117 508l10 151h999l-12 -151h-997zM465 74l18 209h205l-16 -209h-207zM530 881l17 209h205l-17 -209h-205z" />
<glyph unicode="&#xf8;" horiz-adv-x="1155" d="M86 471q0 168 62.5 293t176 192.5t263.5 67.5q129 0 229 -47l88 135l107 -65l-90 -138q71 -65 110 -160.5t39 -211.5q0 -168 -62.5 -292t-176 -191.5t-265.5 -67.5q-123 0 -225 45l-90 -135l-107 67l91 137q-72 63 -111 158.5t-39 212.5zM293 465q0 -129 47 -207l381 576 q-53 27 -131 26q-143 0 -220 -107.5t-77 -287.5zM436 174q53 -27 133 -27q144 0 220.5 106.5t76.5 289.5q0 131 -51 207z" />
<glyph unicode="&#xf9;" horiz-adv-x="1165" d="M127 336q0 37 2 55l49 608h207l-49 -596l-2 -36q0 -213 198 -213q121 0 193 75.5t82 208.5l45 561h207l-78 -999h-203l13 152q-51 -80 -136.5 -123t-189.5 -43q-166 0 -252 89t-86 261zM316 1546h208l177 -416h-138z" />
<glyph unicode="&#xfa;" horiz-adv-x="1165" d="M127 336q0 37 2 55l49 608h207l-49 -596l-2 -36q0 -213 198 -213q121 0 193 75.5t82 208.5l45 561h207l-78 -999h-203l13 152q-51 -80 -136.5 -123t-189.5 -43q-166 0 -252 89t-86 261zM563 1130l230 416h233l-325 -416h-138z" />
<glyph unicode="&#xfb;" horiz-adv-x="1165" d="M127 336q0 37 2 55l49 608h207l-49 -596l-2 -36q0 -213 198 -213q121 0 193 75.5t82 208.5l45 561h207l-78 -999h-203l13 152q-51 -80 -136.5 -123t-189.5 -43q-166 0 -252 89t-86 261zM316 1130l280 416h137l215 -416h-174l-118 277l-158 -277h-182z" />
<glyph unicode="&#xfc;" horiz-adv-x="1165" d="M127 336q0 37 2 55l49 608h207l-49 -596l-2 -36q0 -213 198 -213q121 0 193 75.5t82 208.5l45 561h207l-78 -999h-203l13 152q-51 -80 -136.5 -123t-189.5 -43q-166 0 -252 89t-86 261zM354 1237l15 203h213l-17 -203h-211zM715 1237l16 203h211l-14 -203h-213z" />
<glyph unicode="&#xfd;" horiz-adv-x="1064" d="M47 997h211l254 -761l375 761h211l-703 -1366h-209l203 396zM514 1130l230 416h233l-325 -416h-138z" />
<glyph unicode="&#xfe;" horiz-adv-x="1210" d="M76 -369l143 1813h207l-47 -582q51 76 136 119t185 43q125 0 222.5 -59.5t150.5 -169t53 -254.5q0 -164 -59 -290t-166.5 -195.5t-247.5 -69.5q-115 0 -198.5 47t-128.5 137l-43 -539h-207zM348 473q0 -158 72 -240.5t205 -82.5q137 0 213.5 102t76.5 283 q0 156 -71.5 239.5t-204.5 83.5q-135 0 -213 -103.5t-78 -281.5z" />
<glyph unicode="&#xff;" horiz-adv-x="1064" d="M47 997h211l254 -761l375 761h211l-703 -1366h-209l203 396zM305 1237l15 203h213l-17 -203h-211zM666 1237l16 203h211l-14 -203h-213z" />
<glyph unicode="&#x152;" horiz-adv-x="2140" d="M135 666q0 244 88 417.5t257 267t407 93.5h1235l-13 -170h-731l-37 -455h691l-15 -172h-688l-39 -477h731l-14 -170h-1188q-326 0 -505 176t-179 490zM350 664q0 -242 124 -368t366 -126h243l88 1104h-270q-274 0 -412.5 -156.5t-138.5 -453.5z" />
<glyph unicode="&#x153;" horiz-adv-x="1847" d="M86 471q0 166 62.5 292t175 193.5t260.5 67.5q141 0 239.5 -53t151.5 -154q61 98 159.5 152.5t227.5 54.5q188 0 299 -118t111 -341q0 -47 -7 -100h-700q2 -152 78 -235t221 -83q78 0 156.5 28t148.5 83l51 -145q-61 -57 -163.5 -92t-202.5 -35q-139 0 -240.5 55 t-159.5 156q-59 -100 -159.5 -155.5t-233.5 -55.5q-141 0 -248.5 59t-167 170t-59.5 256zM295 465q0 -156 70.5 -235.5t203.5 -79.5q140 0 214.5 106t74.5 287q0 154 -69.5 234.5t-198.5 80.5q-143 0 -219 -106.5t-76 -286.5zM1073 584h520q2 143 -58 215.5t-169 72.5 q-123 0 -197.5 -73.5t-95.5 -214.5z" />
<glyph unicode="&#x178;" horiz-adv-x="1251" d="M18 1444h236l395 -594l488 594h243l-635 -770l-53 -674h-211l54 672zM428 1624l15 203h213l-17 -203h-211zM789 1624l16 203h211l-14 -203h-213z" />
<glyph unicode="&#x2c6;" horiz-adv-x="614" d="M41 1130l280 416h137l215 -416h-174l-118 277l-158 -277h-182z" />
<glyph unicode="&#x2dc;" horiz-adv-x="614" d="M26 1219q6 124 63.5 187.5t145.5 63.5q41 0 77 -16t89 -49q8 -4 33.5 -19.5t46 -22.5t37.5 -7q43 0 69.5 28.5t30.5 79.5h102q-8 -127 -65 -189.5t-143 -62.5q-41 0 -77 15.5t-91 48.5q-37 25 -62.5 37t-50.5 12q-43 0 -69.5 -27.5t-32.5 -78.5h-103z" />
<glyph unicode="&#x2000;" horiz-adv-x="940" />
<glyph unicode="&#x2001;" horiz-adv-x="1880" />
<glyph unicode="&#x2002;" horiz-adv-x="940" />
<glyph unicode="&#x2003;" horiz-adv-x="1880" />
<glyph unicode="&#x2004;" horiz-adv-x="626" />
<glyph unicode="&#x2005;" horiz-adv-x="470" />
<glyph unicode="&#x2006;" horiz-adv-x="313" />
<glyph unicode="&#x2007;" horiz-adv-x="313" />
<glyph unicode="&#x2008;" horiz-adv-x="235" />
<glyph unicode="&#x2009;" horiz-adv-x="376" />
<glyph unicode="&#x200a;" horiz-adv-x="104" />
<glyph unicode="&#x2010;" horiz-adv-x="878" d="M141 463l15 166h589l-14 -166h-590z" />
<glyph unicode="&#x2011;" horiz-adv-x="878" d="M141 463l15 166h589l-14 -166h-590z" />
<glyph unicode="&#x2012;" horiz-adv-x="878" d="M141 463l15 166h589l-14 -166h-590z" />
<glyph unicode="&#x2013;" horiz-adv-x="1024" d="M-2 481l10 129h1024l-10 -129h-1024z" />
<glyph unicode="&#x2014;" horiz-adv-x="2048" d="M-2 481l10 129h2048l-10 -129h-2048z" />
<glyph unicode="&#x2018;" horiz-adv-x="487" d="M158 963l14 165q6 94 45 173t121 155l84 -70q-92 -92 -115 -180h115l-21 -243h-243z" />
<glyph unicode="&#x2019;" horiz-adv-x="487" d="M176 1020q92 86 115 180h-115l19 244h243l-10 -166q-8 -94 -47 -173t-121 -157z" />
<glyph unicode="&#x201a;" horiz-adv-x="487" d="M82 0l20 244h244l-14 -166q-8 -96 -46 -175t-120 -155l-84 72q92 90 115 180h-115z" />
<glyph unicode="&#x201c;" horiz-adv-x="849" d="M158 963l14 165q6 94 45 173t121 155l84 -70q-92 -92 -115 -180h115l-21 -243h-243zM523 963l14 165q6 94 45 173t121 155l84 -70q-92 -92 -115 -180h115l-21 -243h-243z" />
<glyph unicode="&#x201d;" horiz-adv-x="849" d="M176 1020q92 86 115 180h-115l19 244h243l-10 -166q-8 -94 -47 -173t-121 -157zM541 1020q92 86 115 180h-115l19 244h243l-10 -166q-8 -94 -47 -173t-121 -157z" />
<glyph unicode="&#x201e;" horiz-adv-x="849" d="M82 0l20 244h244l-14 -166q-8 -96 -46 -175t-120 -155l-84 72q92 90 115 180h-115zM447 0l20 244h244l-14 -166q-8 -96 -46 -175t-120 -155l-84 72q92 90 115 180h-115z" />
<glyph unicode="&#x2022;" horiz-adv-x="1073" d="M168 543q0 94 48 178t133 135t190 51q98 0 183 -48t136 -131t51 -185q0 -98 -50 -181t-135 -132.5t-185 -49.5q-99 0 -185 48t-136 131t-50 184z" />
<glyph unicode="&#x2026;" horiz-adv-x="1460" d="M82 0l20 244h244l-20 -244h-244zM569 0l19 244h243l-18 -244h-244zM1057 0l18 244h244l-19 -244h-243z" />
<glyph unicode="&#x202f;" horiz-adv-x="376" />
<glyph unicode="&#x2039;" horiz-adv-x="557" d="M125 492l8 104l223 328l144 -64l-185 -317l129 -320l-143 -59z" />
<glyph unicode="&#x203a;" horiz-adv-x="550" d="M63 225l187 318l-131 319l145 60l176 -326l-8 -104l-227 -328z" />
<glyph unicode="&#x205f;" horiz-adv-x="470" />
<glyph unicode="&#x20ac;" d="M37 498l10 139h191q0 61 8 172h-185l13 139h196q53 246 195.5 379t353.5 133q135 0 248 -45t193 -133l-89 -156q-162 160 -348 160q-127 0 -214 -86t-128 -252h346l-12 -139h-358q-6 -55 -11 -172h357l-12 -139h-338q33 -340 309 -340q76 0 164 41t182 118l63 -155 q-80 -78 -198.5 -128t-218.5 -50q-217 0 -348.5 134t-159.5 380h-209z" />
<glyph unicode="&#x2122;" horiz-adv-x="1892" d="M82 1288l14 156h729l-12 -156h-270l-58 -706h-190l57 706h-270zM885 582l67 862h146l239 -535l324 535h147l-67 -862h-168l41 522l-228 -379h-122l-168 371l-41 -514h-170z" />
<glyph unicode="&#x25fc;" horiz-adv-x="1003" d="M0 0v1004h1004v-1004h-1004z" />
</font>
</defs>
</svg>
