<?xml version="1.0" standalone="no"?><!-- Generator: Gravit.io --><svg xmlns="http://www.w3.org/2000/svg" xmlns:xlink="http://www.w3.org/1999/xlink" style="isolation:isolate" viewBox="0 0 50 50" width="50" height="50"><defs><clipPath id="_clipPath_nzVN60VLpmqabVHVi45TCcfkPtJJ7lUo"><rect width="50" height="50"/></clipPath></defs><g clip-path="url(#_clipPath_nzVN60VLpmqabVHVi45TCcfkPtJJ7lUo)"><g id="search"><path d=" M 22 31 C 24.131 31 26.089 30.251 27.633 29.008 L 35.291 36.705 C 35.68 37.097 36.312 37.099 36.705 36.708 C 37.097 36.318 37.098 35.685 36.709 35.294 L 29.041 27.587 C 30.264 26.052 31 24.111 31 22 C 31 17.037 26.963 13 22 13 C 17.037 13 13 17.037 13 22 C 13 26.962 17.037 31 22 31 Z  M 22 15 C 25.859 15 29 18.14 29 22 C 29 25.859 25.859 29 22 29 C 18.14 29 15 25.859 15 22 C 15 18.14 18.14 15 22 15 Z " fill="rgb(255,255,255)"/></g></g></svg>