<svg width="172" height="34" viewBox="0 0 172 34" fill="none" xmlns="http://www.w3.org/2000/svg">
<g clip-path="url(#clip0_6025_32)">
<path d="M31.5928 24.8045C28.6441 24.8045 26.5838 23.0658 26.4579 20.8571H29.4521C29.5605 21.7582 30.386 22.4438 31.5753 22.4438C32.7645 22.4438 33.3802 21.9067 33.3802 21.2211C33.3802 19.0972 26.7377 20.4507 26.7377 16.0968C26.7377 14.1248 28.4797 12.5381 31.3864 12.5381C34.2931 12.5381 35.9511 14.1036 36.119 16.4608H33.2752C33.1913 15.5384 32.4707 14.9165 31.3024 14.9165C30.2006 14.9165 29.627 15.3653 29.627 16.0544C29.627 18.2207 36.1435 16.8707 36.2274 21.2246C36.2274 23.2602 34.4645 24.8045 31.5998 24.8045H31.5928Z" fill="white"/>
<path d="M43.8038 24.8116C40.4074 24.8116 37.84 22.4085 37.84 18.6802C37.84 14.9518 40.4949 12.5487 43.8913 12.5487C47.2877 12.5487 49.9391 14.9271 49.9391 18.6802C49.9391 22.4333 47.2213 24.8116 43.8038 24.8116ZM43.8038 22.1965C45.3744 22.1965 46.882 21.0373 46.882 18.6802C46.882 16.323 45.4164 15.1639 43.8458 15.1639C42.2753 15.1639 40.8516 16.3018 40.8516 18.6802C40.8516 21.0585 42.2088 22.1965 43.8038 22.1965Z" fill="white"/>
<path d="M57.3686 12.5452C60.2963 12.5452 62.2726 14.0895 62.9092 16.7471H59.7052C59.3659 15.7399 58.5789 15.0967 57.3476 15.0967C55.6931 15.0967 54.5878 16.3619 54.5878 18.6766C54.5878 20.9914 55.6896 22.2353 57.3476 22.2353C58.5789 22.2353 59.3449 21.677 59.7052 20.6062H62.9092C62.2726 23.1365 60.2998 24.8081 57.3686 24.8081C53.9722 24.8081 51.5516 22.405 51.5516 18.6766C51.5516 14.9483 53.9722 12.5452 57.3686 12.5452Z" fill="white"/>
<path d="M64.4797 8.84507C64.4797 7.85909 65.2458 7.08514 66.3056 7.08514C67.3655 7.08514 68.1315 7.85555 68.1315 8.84507C68.1315 9.83458 67.348 10.605 66.3056 10.605C65.2633 10.605 64.4797 9.83458 64.4797 8.84507Z" fill="white"/>
<path d="M67.7712 12.7289H64.798V24.6102H67.7712V12.7289Z" fill="white"/>
<path d="M75.0433 12.5452C76.9321 12.5452 78.2263 13.4463 78.9259 14.4323V12.7395H81.9201V24.6208H78.9259V22.8856C78.2263 23.914 76.8901 24.8152 75.0188 24.8152C72.0456 24.8152 69.6705 22.3484 69.6705 18.6378C69.6705 14.9271 72.0491 12.5487 75.0398 12.5487L75.0433 12.5452ZM75.8058 15.1815C74.2143 15.1815 72.7067 16.3831 72.7067 18.6342C72.7067 20.8854 74.2143 22.1717 75.8058 22.1717C77.3973 22.1717 78.9259 20.9278 78.9259 18.6766C78.9259 16.4255 77.4393 15.1815 75.8058 15.1815Z" fill="white"/>
<path d="M83.8335 8.73907H86.8067V24.6067H83.8335V8.73907Z" fill="white"/>
<path d="M95.6143 12.5452C98.6294 12.5452 100.983 14.9235 100.983 18.6342C100.983 22.3449 98.6294 24.8116 95.6143 24.8116C93.7674 24.8116 92.4522 23.8893 91.7281 22.9245V30.2787H88.7549V12.7395H91.7281V14.4571C92.4277 13.4499 93.7884 12.5487 95.6143 12.5487V12.5452ZM94.8273 15.1815C93.2357 15.1815 91.7281 16.4255 91.7281 18.6766C91.7281 20.9278 93.2357 22.1717 94.8273 22.1717C96.4188 22.1717 97.9473 20.8854 97.9473 18.6342C97.9473 16.3831 96.4398 15.1815 94.8273 15.1815Z" fill="white"/>
<path d="M102.547 8.84507C102.547 7.85909 103.313 7.08514 104.373 7.08514C105.433 7.08514 106.199 7.85555 106.199 8.84507C106.199 9.83458 105.415 10.605 104.373 10.605C103.331 10.605 102.547 9.83458 102.547 8.84507Z" fill="white"/>
<path d="M105.839 12.7289H102.865V24.6102H105.839V12.7289Z" fill="white"/>
<path d="M116.024 18.0476C116.024 16.1393 114.986 15.1109 113.415 15.1109C111.844 15.1109 110.76 16.1393 110.76 18.0476V24.6102H107.787V12.729H110.76V14.2097C111.526 13.2025 112.799 12.5593 114.303 12.5593C117.042 12.5593 118.994 14.3617 118.994 17.6412V24.6102H116.021V18.0476H116.024Z" fill="white"/>
<path d="M127.896 12.5452C130.911 12.5452 133.265 14.9235 133.265 18.6342C133.265 22.3449 130.911 24.8116 127.896 24.8116C126.049 24.8116 124.734 23.8893 124.01 22.9245V30.2787H121.037V12.7395H124.01V14.4571C124.71 13.4499 126.07 12.5487 127.896 12.5487V12.5452ZM127.109 15.1815C125.518 15.1815 124.01 16.4255 124.01 18.6766C124.01 20.9278 125.518 22.1717 127.109 22.1717C128.701 22.1717 130.229 20.8854 130.229 18.6342C130.229 16.3831 128.722 15.1815 127.109 15.1815Z" fill="white"/>
<path d="M140.733 24.8116C137.337 24.8116 134.769 22.4085 134.769 18.6802C134.769 14.9518 137.424 12.5487 140.821 12.5487C144.217 12.5487 146.869 14.9271 146.869 18.6802C146.869 22.4333 144.151 24.8116 140.733 24.8116ZM140.733 22.1965C142.304 22.1965 143.811 21.0373 143.811 18.6802C143.811 16.323 142.346 15.1639 140.775 15.1639C139.205 15.1639 137.781 16.3018 137.781 18.6802C137.781 21.0585 139.138 22.1965 140.733 22.1965Z" fill="white"/>
<path d="M148.45 8.84507C148.45 7.85909 149.216 7.08514 150.275 7.08514C151.335 7.08514 152.101 7.85555 152.101 8.84507C152.101 9.83458 151.318 10.605 150.275 10.605C149.233 10.605 148.45 9.83458 148.45 8.84507Z" fill="white"/>
<path d="M151.741 12.7289H148.768V24.6102H151.741V12.7289Z" fill="white"/>
<path d="M161.811 18.0476C161.811 16.1393 160.773 15.1109 159.202 15.1109C157.632 15.1109 156.547 16.1393 156.547 18.0476V24.6102H153.574V12.729H156.547V14.2097C157.313 13.2025 158.586 12.5593 160.091 12.5593C162.829 12.5593 164.781 14.3617 164.781 17.6412V24.6102H161.808V18.0476H161.811Z" fill="white"/>
<path d="M166.6 12.7289V8.73907H169.594V12.7289H172.225V15.1957H169.594V20.9419C169.594 21.7371 169.913 22.0799 170.846 22.0799H172.225V24.6102H170.357C168.108 24.6102 166.6 23.6454 166.6 20.9207V15.1957C166.6 15.2875 166.6 12.7289 166.6 12.7289Z" fill="white"/>
<path d="M10.0214 4.00348H14.0614C16.3386 4.00348 18.1889 5.87296 18.1889 8.17358V8.18418C18.1889 10.4848 16.3386 12.3543 14.0614 12.3543H14.0509C11.7738 12.3543 9.92346 10.4848 9.92346 8.18418V4.10243C9.92346 4.04589 9.96894 4.00348 10.0214 4.00348Z" fill="#35C0CA"/>
<path d="M14.0509 14.0223H14.0614C16.3386 14.0223 18.1889 15.8918 18.1889 18.1924V26.1121C18.1889 28.4127 16.3386 30.2822 14.0614 30.2822H10.0214C9.96544 30.2822 9.92346 30.2363 9.92346 30.1832V18.196C9.92346 15.8954 11.7738 14.0259 14.0509 14.0259V14.0223Z" fill="white"/>
<path d="M8.1675 30.2822H4.12746C1.85035 30.2822 -2.59187e-05 28.4127 -2.59187e-05 26.1121V26.1015C-2.59187e-05 23.8009 1.85035 21.9314 4.12746 21.9314H4.13796C6.41507 21.9314 8.26544 23.8009 8.26544 26.1015V30.1833C8.26544 30.2398 8.21997 30.2822 8.1675 30.2822Z" fill="#2FA2DB"/>
<path d="M4.13796 20.2598H4.12746C1.85035 20.2598 -2.59187e-05 18.3904 -2.59187e-05 16.0897L-2.59187e-05 8.17007C-2.59187e-05 5.86945 1.85035 3.99997 4.12746 3.99997H8.1675C8.22347 3.99997 8.26544 4.04591 8.26544 4.09892L8.26544 16.0897C8.26544 18.3904 6.41507 20.2598 4.13796 20.2598Z" fill="white"/>
</g>
<defs>
<clipPath id="clip0_6025_32">
<rect width="172" height="34" fill="white"/>
</clipPath>
</defs>
</svg>
