<svg width="500" height="85" viewBox="0 0 500 85" fill="none" xmlns="http://www.w3.org/2000/svg">
<path d="M94.14 64.13C85.71 64.13 79.82 59.21 79.46 52.96H88.02C88.33 55.51 90.69 57.45 94.09 57.45C97.49 57.45 99.25 55.93 99.25 53.99C99.25 47.98 80.26 51.81 80.26 39.49C80.26 33.91 85.24 29.42 93.55 29.42C101.86 29.42 106.6 33.85 107.08 40.52H98.95C98.71 37.91 96.65 36.15 93.31 36.15C90.16 36.15 88.52 37.42 88.52 39.37C88.52 45.5 107.15 41.68 107.39 54C107.39 59.76 102.35 64.13 94.16 64.13H94.14Z" fill="#051637"/>
<path d="M129.05 64.15C119.34 64.15 112 57.35 112 46.8C112 36.25 119.59 29.45 129.3 29.45C139.01 29.45 146.59 36.18 146.59 46.8C146.59 57.42 138.82 64.15 129.05 64.15ZM129.05 56.75C133.54 56.75 137.85 53.47 137.85 46.8C137.85 40.13 133.66 36.85 129.17 36.85C124.68 36.85 120.61 40.07 120.61 46.8C120.61 53.53 124.49 56.75 129.05 56.75Z" fill="#051637"/>
<path d="M167.83 29.44C176.2 29.44 181.85 33.81 183.67 41.33H174.51C173.54 38.48 171.29 36.66 167.77 36.66C163.04 36.66 159.88 40.24 159.88 46.79C159.88 53.34 163.03 56.86 167.77 56.86C171.29 56.86 173.48 55.28 174.51 52.25H183.67C181.85 59.41 176.21 64.14 167.83 64.14C158.12 64.14 151.2 57.34 151.2 46.79C151.2 36.24 158.12 29.44 167.83 29.44Z" fill="#051637"/>
<path d="M188.16 18.97C188.16 16.18 190.35 13.99 193.38 13.99C196.41 13.99 198.6 16.17 198.6 18.97C198.6 21.77 196.36 23.95 193.38 23.95C190.4 23.95 188.16 21.77 188.16 18.97Z" fill="#051637"/>
<path d="M197.57 29.96H189.07V63.58H197.57V29.96Z" fill="#051637"/>
<path d="M218.36 29.44C223.76 29.44 227.46 31.99 229.46 34.78V29.99H238.02V63.61H229.46V58.7C227.46 61.61 223.64 64.16 218.29 64.16C209.79 64.16 203 57.18 203 46.68C203 36.18 209.8 29.45 218.35 29.45L218.36 29.44ZM220.54 36.9C215.99 36.9 211.68 40.3 211.68 46.67C211.68 53.04 215.99 56.68 220.54 56.68C225.09 56.68 229.46 53.16 229.46 46.79C229.46 40.42 225.21 36.9 220.54 36.9Z" fill="#051637"/>
<path d="M243.49 18.67H251.99V63.57H243.49V18.67Z" fill="#051637"/>
<path d="M277.17 29.44C285.79 29.44 292.52 36.17 292.52 46.67C292.52 57.17 285.79 64.15 277.17 64.15C271.89 64.15 268.13 61.54 266.06 58.81V79.62H257.56V29.99H266.06V34.85C268.06 32 271.95 29.45 277.17 29.45V29.44ZM274.92 36.9C270.37 36.9 266.06 40.42 266.06 46.79C266.06 53.16 270.37 56.68 274.92 56.68C279.47 56.68 283.84 53.04 283.84 46.67C283.84 40.3 279.53 36.9 274.92 36.9Z" fill="#051637"/>
<path d="M296.99 18.97C296.99 16.18 299.18 13.99 302.21 13.99C305.24 13.99 307.43 16.17 307.43 18.97C307.43 21.77 305.19 23.95 302.21 23.95C299.23 23.95 296.99 21.77 296.99 18.97Z" fill="#051637"/>
<path d="M306.4 29.96H297.9V63.58H306.4V29.96Z" fill="#051637"/>
<path d="M335.52 45.01C335.52 39.61 332.55 36.7 328.06 36.7C323.57 36.7 320.47 39.61 320.47 45.01V63.58H311.97V29.96H320.47V34.15C322.66 31.3 326.3 29.48 330.6 29.48C338.43 29.48 344.01 34.58 344.01 43.86V63.58H335.51V45.01H335.52Z" fill="#051637"/>
<path d="M369.46 29.44C378.08 29.44 384.81 36.17 384.81 46.67C384.81 57.17 378.08 64.15 369.46 64.15C364.18 64.15 360.42 61.54 358.35 58.81V79.62H349.85V29.99H358.35V34.85C360.35 32 364.24 29.45 369.46 29.45V29.44ZM367.21 36.9C362.66 36.9 358.35 40.42 358.35 46.79C358.35 53.16 362.66 56.68 367.21 56.68C371.76 56.68 376.13 53.04 376.13 46.67C376.13 40.3 371.82 36.9 367.21 36.9Z" fill="#051637"/>
<path d="M406.16 64.15C396.45 64.15 389.11 57.35 389.11 46.8C389.11 36.25 396.7 29.45 406.41 29.45C416.12 29.45 423.7 36.18 423.7 46.8C423.7 57.42 415.93 64.15 406.16 64.15ZM406.16 56.75C410.65 56.75 414.96 53.47 414.96 46.8C414.96 40.13 410.77 36.85 406.28 36.85C401.79 36.85 397.72 40.07 397.72 46.8C397.72 53.53 401.6 56.75 406.16 56.75Z" fill="#051637"/>
<path d="M428.22 18.97C428.22 16.18 430.41 13.99 433.44 13.99C436.47 13.99 438.66 16.17 438.66 18.97C438.66 21.77 436.42 23.95 433.44 23.95C430.46 23.95 428.22 21.77 428.22 18.97Z" fill="#051637"/>
<path d="M437.63 29.96H429.13V63.58H437.63V29.96Z" fill="#051637"/>
<path d="M466.42 45.01C466.42 39.61 463.45 36.7 458.96 36.7C454.47 36.7 451.37 39.61 451.37 45.01V63.58H442.87V29.96H451.37V34.15C453.56 31.3 457.2 29.48 461.5 29.48C469.33 29.48 474.91 34.58 474.91 43.86V63.58H466.41V45.01H466.42Z" fill="#051637"/>
<path d="M480.11 29.96V18.67H488.67V29.96H496.19V36.94H488.67V53.2C488.67 55.45 489.58 56.42 492.25 56.42H496.19V63.58H490.85C484.42 63.58 480.11 60.85 480.11 53.14V36.94C480.11 37.2 480.11 29.96 480.11 29.96Z" fill="#051637"/>
<path d="M32.4699 5.26999H44.0199C50.5299 5.26999 55.8199 10.56 55.8199 17.07V17.1C55.8199 23.61 50.5299 28.9 44.0199 28.9H43.9899C37.4799 28.9 32.1899 23.61 32.1899 17.1V5.54999C32.1899 5.38999 32.3199 5.26999 32.4699 5.26999Z" fill="#35C0CA"/>
<path d="M43.9899 33.62H44.0199C50.5299 33.62 55.8199 38.91 55.8199 45.42V67.83C55.8199 74.34 50.5299 79.63 44.0199 79.63H32.4699C32.3099 79.63 32.1899 79.5 32.1899 79.35V45.43C32.1899 38.92 37.4799 33.63 43.9899 33.63V33.62Z" fill="#0C153A"/>
<path d="M27.17 79.63H15.62C9.10995 79.63 3.81995 74.34 3.81995 67.83V67.8C3.81995 61.29 9.10995 56 15.62 56H15.65C22.16 56 27.45 61.29 27.45 67.8V79.35C27.45 79.51 27.32 79.63 27.17 79.63Z" fill="#2FA2DB"/>
<path d="M15.65 51.27H15.62C9.10995 51.27 3.81995 45.98 3.81995 39.47L3.81995 17.06C3.81995 10.55 9.10995 5.25999 15.62 5.25999H27.17C27.33 5.25999 27.45 5.38999 27.45 5.53999L27.45 39.47C27.45 45.98 22.16 51.27 15.65 51.27Z" fill="#0C153A"/>
</svg>
